<svg width="474" height="394" viewBox="0 0 474 394" fill="none" xmlns="http://www.w3.org/2000/svg">
<rect width="474" height="394" rx="50" fill="#4944A8"/>
<g clip-path="url(#clip0_319_2)">
<path d="M420.788 200.5C420.813 219.904 417.218 239.168 410.16 257.461C410.156 257.473 410.151 257.481 410.147 257.493C410.116 257.578 410.085 257.655 410.05 257.74V257.744C408.544 261.624 406.89 265.439 405.087 269.189C400.538 278.646 395.061 287.704 388.723 296.251C387.186 298.332 385.595 300.38 383.95 302.394C382.139 304.622 380.271 306.805 378.346 308.943C376.571 310.915 374.749 312.85 372.88 314.746C370.659 317.006 368.372 319.208 366.018 321.352C360.479 326.411 354.598 331.146 348.409 335.526C347.323 336.3 346.225 337.06 345.115 337.806C342.532 339.556 339.897 341.243 337.211 342.869C331.303 346.451 325.174 349.718 318.856 352.653C317.765 353.163 316.666 353.666 315.562 354.152C311.292 356.043 306.935 357.783 302.492 359.372C301.225 359.829 299.953 360.271 298.668 360.696C298.452 360.773 298.235 360.846 298.014 360.915C282.778 365.959 266.884 369.142 250.742 370.383C249.62 370.477 248.497 370.555 247.373 370.618C246.18 370.695 244.987 370.757 243.792 370.805C242.847 370.849 241.906 370.882 240.957 370.906C240.763 370.914 240.564 370.922 240.37 370.922C239.093 370.959 237.813 370.981 236.528 370.991C235.985 370.995 235.442 370.999 234.894 370.999C234.638 370.999 234.382 370.999 234.126 370.995C230.421 370.983 226.745 370.872 223.096 370.663C223.021 370.659 222.946 370.651 222.871 370.651C221.564 370.57 220.261 370.485 218.963 370.379C214.34 370.023 209.767 369.51 205.244 368.84C204.202 368.691 203.163 368.529 202.127 368.354C197.627 367.625 193.187 366.747 188.805 365.718C187.502 365.414 186.207 365.097 184.919 364.766C177.486 362.869 170.191 360.545 163.076 357.809C158.991 356.237 154.983 354.539 151.052 352.714C149.281 351.892 147.528 351.044 145.793 350.171C145.321 349.936 144.853 349.697 144.385 349.458C140.967 347.708 137.62 345.864 134.344 343.926C131.659 342.342 129.024 340.695 126.44 338.985C126.122 338.782 125.808 338.572 125.495 338.361C123.512 337.037 121.562 335.679 119.644 334.287C115.472 331.254 111.448 328.066 107.572 324.725C104.892 322.417 102.29 320.035 99.7656 317.581C85.0578 303.315 73.1423 286.829 64.5428 268.849C62.7148 265.022 61.0369 261.125 59.5091 257.157C59.5041 257.148 59.5011 257.139 59.5003 257.129C52.5281 238.934 48.9775 219.785 49.0001 200.5C49.0001 128.914 97.103 67.6314 165.279 42.3602C189.575 33.3923 215.66 29.2214 241.832 30.1195C268.004 31.0176 293.675 36.9644 317.173 47.5724C378.567 75.4071 420.788 133.434 420.788 200.5Z" fill="#F2F2F2"/>
<path d="M317.173 47.5724V263.029H165.279V42.3602C189.575 33.3923 215.66 29.2214 241.832 30.1195C268.004 31.0176 293.675 36.9644 317.173 47.5724Z" fill="white"/>
<path d="M201.832 145.826C205.952 139.575 210.835 132.901 218.481 130.86C227.337 128.497 236.433 133.192 244.149 137.825C267.225 151.683 289.447 166.7 310.714 182.808L310.691 183.051C294.134 182.003 277.576 180.956 261.019 179.909C249.057 179.152 236.683 178.291 226.112 173.101C222.1 171.131 218.19 168.5 213.644 168.317C207.996 168.089 203.072 171.707 199.202 175.487C176.31 197.844 169.686 232.035 144.003 251.678C160.198 215.047 179.535 179.652 201.832 145.826Z" fill="#F2F2F2"/>
<path d="M328.284 53.0679C327.9 52.833 327.511 52.6102 327.127 52.3834C316.022 45.8695 304.12 40.5777 291.666 36.6173L288.778 73.1552H270.471V31.2836C269.319 31.0649 268.157 30.8584 266.996 30.664V73.1552H245.241C233.264 73.1552 221.778 68.7916 213.309 61.0242C204.841 53.2568 200.083 42.722 200.083 31.7373V31.7372C198.917 31.9681 197.76 32.2151 196.603 32.4783V73.1552H178.884L176.133 38.3142C163.334 42.8162 151.184 48.7364 139.952 55.9433C139.758 56.0648 139.564 56.1903 139.374 56.3118C138.398 56.9396 137.435 57.5794 136.477 58.2274V261.608H188.7L187.777 249.883L182.699 121.523H284.958L279.88 249.883L278.958 261.608H330.602V54.4773C329.834 53.9994 329.061 53.5296 328.284 53.0679ZM196.603 110.892H181.86L179.136 76.3465H196.603V110.892ZM266.996 110.892H242.234V110.207C242.234 109.878 242.163 109.553 242.026 109.249C241.888 108.945 241.687 108.669 241.433 108.436C241.179 108.204 240.878 108.02 240.546 107.894C240.214 107.768 239.859 107.704 239.5 107.705H228.735C228.377 107.705 228.022 107.769 227.691 107.895C227.36 108.021 227.059 108.205 226.805 108.437C226.552 108.67 226.351 108.946 226.214 109.25C226.077 109.553 226.006 109.879 226.007 110.207V110.892H200.083V76.3465H266.996V110.892ZM270.471 110.892V76.3465H288.526L285.802 110.892H270.471Z" fill="#3F3D56"/>
<path d="M410.161 257.46C410.156 257.472 410.152 257.48 410.147 257.492C410.116 257.577 410.085 257.654 410.05 257.74V257.744C408.544 261.623 406.89 265.438 405.087 269.188L64.543 268.848C62.715 265.021 61.0371 261.124 59.5093 257.156C59.5044 257.148 59.5014 257.138 59.5005 257.128L410.161 257.46Z" fill="#3F3D56"/>
<path d="M282.896 258.792H223.286V266.082H282.896V258.792Z" fill="white"/>
<path d="M144.38 330.18C144.592 328.467 144.885 326.765 145.259 325.074C147.302 315.902 151.687 307.305 158.055 299.989C161.698 300.175 164.89 299.665 165.195 293.193C165.252 292.043 166.184 291.042 166.387 289.908C166.043 289.953 165.685 289.977 165.34 289.998C165.23 290.002 165.115 290.01 165.009 290.014H164.97C164.587 290.03 164.208 289.945 163.877 289.768C163.547 289.591 163.279 289.33 163.107 289.016C162.934 288.703 162.865 288.35 162.906 288.001C162.948 287.652 163.098 287.321 163.34 287.049C163.49 286.883 163.64 286.713 163.791 286.543C164.016 286.28 164.25 286.025 164.479 285.765C164.506 285.737 164.528 285.713 164.554 285.684C164.815 285.389 165.076 285.093 165.34 284.798C164.862 284.116 164.218 283.545 163.459 283.129C160.832 281.716 157.207 282.696 155.308 284.875C153.405 287.053 153.043 290.115 153.705 292.837C154.271 295.169 155.503 297.308 156.885 299.341C156.743 299.507 156.593 299.669 156.452 299.839C153.848 302.911 151.578 306.21 149.674 309.688C150.213 305.829 143.629 291.897 141.081 288.945C138.022 285.401 131.751 286.948 131.213 291.443C131.208 291.484 131.199 291.528 131.195 291.573C131.575 291.767 131.946 291.974 132.308 292.197C132.763 292.475 133.115 292.874 133.319 293.339C133.523 293.805 133.568 294.316 133.45 294.806C133.332 295.296 133.055 295.742 132.656 296.085C132.256 296.428 131.753 296.652 131.213 296.728L131.155 296.737C126.095 303.366 142.322 320.623 146.389 316.751C145.367 319.386 144.551 322.085 143.947 324.826C143.406 327.245 143.028 329.692 142.817 332.153C142.559 335.252 142.575 338.366 142.865 341.463C142.857 341.427 142.851 341.391 142.848 341.354C141.942 334.607 126.457 324.575 121.936 325.41C119.331 325.892 116.765 325.782 117.162 328.192C117.167 328.232 117.176 328.269 117.18 328.309C117.882 328.569 118.565 328.871 119.225 329.212C119.604 329.407 119.975 329.617 120.337 329.836C120.763 330.097 121.1 330.464 121.309 330.893C121.517 331.322 121.59 331.796 121.517 332.262C121.445 332.727 121.231 333.164 120.899 333.522C120.568 333.88 120.133 334.146 119.644 334.287C121.565 335.676 123.515 337.034 125.495 338.361C125.808 338.572 126.122 338.782 126.44 338.985C129.023 340.694 131.657 342.341 134.343 343.926C137.62 345.861 140.967 347.706 144.384 349.458C144.852 349.697 145.32 349.936 145.793 350.171C144.605 345.688 144.003 341.091 144 336.478C143.999 334.374 144.126 332.271 144.38 330.18ZM146.795 315.71L146.804 315.698C146.804 315.706 146.801 315.713 146.795 315.718V315.71ZM143.276 344.833L143.139 344.553C143.144 344.347 143.144 344.144 143.139 343.934C143.139 343.877 143.126 343.82 143.126 343.764C143.179 344.124 143.223 344.485 143.28 344.845L143.276 344.833ZM163.557 345.384C163.605 345.197 163.645 345.068 163.693 344.881C163.676 344.841 163.658 344.8 163.64 344.764C162.17 341.552 154.408 348.028 151.052 352.714C154.982 354.536 158.989 356.235 163.075 357.809C163.349 357.493 163.632 357.181 163.91 356.865C163.936 356.837 163.958 356.812 163.98 356.784C164.581 356.104 165.186 355.431 165.782 354.751C165.786 354.617 165.786 354.484 165.786 354.354C165.781 352.403 165.52 350.46 165.009 348.567C164.599 348.584 164.193 348.485 163.846 348.284C163.499 348.083 163.228 347.788 163.069 347.441C162.911 347.094 162.873 346.71 162.96 346.342C163.047 345.974 163.255 345.639 163.557 345.384V345.384Z" fill="white"/>
<path d="M259.073 261.096C260.133 261.767 261.34 262.216 262.61 262.412C263.88 262.609 265.182 262.547 266.423 262.232C267.665 261.917 268.816 261.357 269.795 260.589C270.775 259.822 271.559 258.868 272.093 257.793L303.264 260.467L295.611 247.299L267.184 246.778C265.155 246.076 262.916 246.08 260.891 246.79C258.865 247.501 257.194 248.868 256.194 250.633C255.195 252.398 254.935 254.437 255.466 256.366C255.996 258.294 257.28 259.977 259.073 261.096V261.096Z" fill="#FFB6B6"/>
<path d="M290.68 260.195L333.816 264.63L333.964 264.456C334.249 264.122 362.474 230.985 367.216 223.097C370.133 218.357 371.196 212.845 370.227 207.476L370.195 207.345L370.082 207.258C367.783 205.49 364.895 204.494 361.896 204.434C358.896 204.373 355.964 205.252 353.582 206.926C342.13 215.061 332.896 225.526 326.609 237.496L323.041 244.308L290.68 247.235V260.195Z" fill="#F9CE69"/>
<path d="M255.684 352.873L247.374 370.619C246.181 370.696 244.988 370.758 243.793 370.806C242.848 370.85 241.907 370.883 240.958 370.907L240.635 371L240.371 370.923C239.094 370.96 237.814 370.982 236.529 370.992C235.986 370.996 235.443 371 234.895 371C234.639 371 234.383 371 234.127 370.996L234.679 369.263L235.328 367.209L237.907 359.077L241.629 347.337L247.166 349.515L255.684 352.873Z" fill="#FFB6B6"/>
<path d="M315.563 354.153C311.293 356.044 306.936 357.784 302.493 359.373L298.148 352.67L312.154 347.029L315.563 354.153Z" fill="#FFB6B6"/>
<path d="M345.116 323.689V337.807C342.533 339.557 339.898 341.244 337.212 342.87V323.689H345.116Z" fill="#CACACA"/>
<path d="M372.881 314.747C370.66 317.007 368.373 319.209 366.019 321.353C360.48 326.412 354.599 331.147 348.41 335.527H313.174C312.238 335.527 311.314 335.344 310.462 334.99C309.61 334.636 308.85 334.119 308.233 333.474L308.229 333.462C307.494 332.701 306.983 331.781 306.745 330.789L306.74 330.781C306.641 330.355 306.591 329.92 306.59 329.485V320.79C306.591 319.188 307.285 317.653 308.52 316.52C309.754 315.387 311.428 314.749 313.174 314.747H372.881Z" fill="#3F3D56"/>
<path d="M387.399 280.809L383.58 295.818C383.953 297.993 384.077 300.197 383.95 302.395C382.14 304.623 380.272 306.806 378.347 308.944C376.572 310.916 374.75 312.851 372.881 314.747C370.66 317.007 368.372 319.209 366.019 321.353C359.89 323.118 352.666 323.839 345.116 323.888C342.511 323.908 339.866 323.843 337.212 323.714C326.451 323.195 315.567 321.612 306.652 319.968C304.294 319.538 302.078 319.101 300.038 318.676C296.174 317.878 292.942 317.133 290.602 316.566C287.965 315.934 286.464 315.525 286.464 315.525L276.436 330.927L267.332 344.907L255.6 358.64C254.478 358.733 253.355 358.811 252.23 358.875C251.038 358.952 249.845 359.014 248.649 359.061C247.705 359.106 246.764 359.138 245.815 359.162L245.492 359.255L245.227 359.178L240.971 357.935L239.536 357.518L234.374 356.011C234.374 356.011 235.526 352.682 237.544 347.13C238.286 345.093 243.541 330.032 249.038 316.882C250.667 312.978 252.354 309.017 254.089 305.076C255.511 301.84 256.959 298.617 258.425 295.438C260.973 289.926 273.284 286.953 287.78 285.394C288.517 285.317 289.259 285.24 290.005 285.167C297.393 284.454 305.23 284.086 312.56 283.916C316.229 283.831 319.771 283.798 323.065 283.794C324.129 283.794 325.163 283.797 326.169 283.802H326.173C328.889 283.814 331.388 283.851 333.587 283.891C334.015 283.899 334.43 283.912 334.836 283.92H334.841C335.115 283.924 335.384 283.932 335.649 283.936C340.457 284.049 343.407 284.187 343.407 284.187L344.551 275.958L344.785 274.297L345.005 272.718V272.714L345.032 272.515L345.213 272.511L348.392 272.455L375.115 271.977L386.497 271.534L387.399 280.809Z" fill="#2F2E41"/>
<path d="M314.883 347.389C313.792 347.9 312.692 348.402 311.589 348.888C307.319 350.779 302.962 352.519 298.519 354.108C297.251 354.566 295.98 355.007 294.695 355.432C294.553 355.25 294.408 355.068 294.262 354.886C288.133 347.171 284.318 342.254 276.436 330.927C273.138 326.188 269.822 321.247 266.603 316.201L289.908 306.222L292.522 305.105L300.038 318.676L306.74 330.781L308.233 333.474L314.883 347.389Z" fill="#2F2E41"/>
<path d="M352.685 183.917C364.543 183.917 374.156 175.1 374.156 164.224C374.156 153.348 364.543 144.531 352.685 144.531C340.827 144.531 331.214 153.348 331.214 164.224C331.214 175.1 340.827 183.917 352.685 183.917Z" fill="#FFB6B6"/>
<path d="M391.011 225.436C390.834 209.171 391.355 213.881 389.951 208.28C386.18 193.223 370.527 190.477 367.798 190.137C367.508 189.427 367.061 188.78 366.486 188.235C365.911 187.691 365.22 187.261 364.456 186.971C363.692 186.682 362.871 186.541 362.044 186.555C361.218 186.569 360.403 186.74 359.652 187.055L354.428 189.54C349.363 191.666 352.437 194.738 350.688 199.585L348.851 204.729L333.799 242.89L336.846 257.409L336.85 257.417L338.903 267.198L344.991 273.559L344.877 272.544L344.741 272.738L344.736 272.742L344.383 273.224C344.873 273.471 345.359 273.714 345.836 273.957C347.072 274.581 348.277 275.192 349.452 275.792C349.735 275.937 350.013 276.079 350.291 276.225H350.295C350.472 276.314 350.649 276.403 350.821 276.492C355.227 278.752 338.916 282.867 342.542 284.799C343.045 285.066 343.544 285.333 344.034 285.596C360.725 294.551 374.042 305.704 378.347 308.944C380.272 306.806 382.14 304.623 383.951 302.395C385.593 300.382 387.184 298.335 388.724 296.252C388.993 294.624 389.174 292.995 389.351 291.4C389.563 289.48 388.459 271.697 388.83 269.741C388.993 268.874 388.366 268.052 387.761 267.259C387.2 266.517 386.671 265.821 386.781 265.165C386.896 264.488 387.708 263.751 388.499 263.035C389.36 262.249 390.252 261.439 390.38 260.584C390.733 258.203 389.28 255.814 389.554 253.416C390.004 249.516 390.35 245.604 390.592 241.68C390.932 236.261 391.071 230.846 391.011 225.436Z" fill="#F9CE69"/>
<path d="M269.908 265.323C270.795 264.466 271.875 263.797 273.074 263.365C274.272 262.932 275.56 262.746 276.845 262.819C278.131 262.892 279.383 263.223 280.514 263.788C281.645 264.354 282.627 265.139 283.391 266.09L313.29 257.573L308.765 271.906L281.067 277.797C279.24 278.868 277.048 279.288 274.906 278.976C272.765 278.664 270.822 277.643 269.447 276.105C268.071 274.568 267.359 272.621 267.444 270.634C267.529 268.646 268.406 266.757 269.908 265.323L269.908 265.323Z" fill="#FFB6B6"/>
<path d="M306.156 273.252L361.651 262.758L347.249 266.03C347.412 265.634 363.599 226.292 365.565 217.466C366.812 212.145 366.037 206.593 363.369 201.732L363.295 201.615L363.16 201.563C360.391 200.503 357.311 200.341 354.428 201.103C351.545 201.864 349.031 203.504 347.3 205.752C339.008 216.646 333.591 229.158 331.474 242.302L330.28 249.779L310.714 255.148L306.156 273.252Z" fill="#F9CE69"/>
<path d="M202.732 257.226C202.927 257.746 203.296 258.195 203.786 258.51C204.277 258.825 204.864 258.99 205.462 258.98L217.16 258.704C217.763 258.693 218.346 258.504 218.822 258.164C219.298 257.824 219.642 257.352 219.801 256.818L221.456 240.583C222.043 240.827 222.683 240.948 223.327 240.936C224.459 240.91 225.532 240.473 226.312 239.721C227.091 238.969 227.513 237.964 227.485 236.926C227.457 235.889 226.98 234.904 226.16 234.189C225.34 233.474 224.244 233.087 223.113 233.113C222.856 233.112 222.599 233.137 222.347 233.186C222.073 232.914 221.74 232.698 221.369 232.551C220.998 232.404 220.598 232.331 220.195 232.334L202.201 232.76C202.052 232.765 201.903 232.782 201.757 232.811C201.363 232.878 200.988 233.023 200.66 233.234C200.331 233.445 200.055 233.719 199.851 234.036C199.648 234.353 199.52 234.706 199.478 235.072C199.435 235.438 199.479 235.809 199.605 236.158L202.732 257.226ZM221.796 239.481L222.974 235.612C223.108 235.165 223.111 234.694 222.983 234.245C223.04 234.245 223.09 234.22 223.147 234.22C223.955 234.205 224.736 234.484 225.32 234.996C225.904 235.509 226.242 236.212 226.261 236.953C226.28 237.694 225.978 238.411 225.421 238.948C224.864 239.484 224.098 239.797 223.29 239.816C222.768 239.831 222.251 239.715 221.796 239.481Z" fill="#2F2E41"/>
<path d="M201.757 232.811C202.141 234.821 206.451 236.235 211.633 235.989C216.399 235.788 220.295 234.253 221.009 232.434C220.745 232.362 220.47 232.329 220.195 232.334L202.201 232.76C202.052 232.765 201.903 232.782 201.757 232.811Z" fill="#3F3D56"/>
<path d="M123.509 218.114V252.823C123.509 253.265 123.701 253.689 124.042 254.002C124.383 254.315 124.845 254.491 125.328 254.491H181.407C181.889 254.491 182.352 254.315 182.693 254.002C183.034 253.689 183.225 253.265 183.226 252.823V218.114C183.225 217.672 183.032 217.249 182.692 216.936C182.351 216.624 181.889 216.448 181.407 216.448H125.328C124.846 216.448 124.384 216.624 124.043 216.936C123.702 217.249 123.51 217.672 123.509 218.114Z" fill="#3F3D56"/>
<path d="M124.825 218.546V252.395C124.825 252.631 124.928 252.858 125.11 253.025C125.292 253.192 125.539 253.286 125.797 253.286H180.94C181.198 253.286 181.445 253.192 181.627 253.025C181.809 252.858 181.912 252.631 181.912 252.395V218.546C181.912 218.309 181.81 218.082 181.628 217.915C181.446 217.747 181.198 217.653 180.94 217.653H125.797C125.539 217.653 125.292 217.747 125.109 217.915C124.927 218.082 124.825 218.309 124.825 218.546Z" fill="#F9CE69"/>
<path d="M122.336 259.592C122.439 259.71 122.57 259.806 122.718 259.871C122.867 259.936 123.03 259.97 123.194 259.969H183.242C183.406 259.969 183.569 259.935 183.717 259.87C183.865 259.805 183.996 259.711 184.099 259.594C184.202 259.477 184.276 259.34 184.315 259.194C184.353 259.047 184.356 258.895 184.322 258.748L183.39 254.687C183.352 254.521 183.268 254.367 183.148 254.238C183.028 254.11 182.875 254.011 182.702 253.95C182.577 253.905 182.444 253.882 182.31 253.883H124.123C123.989 253.882 123.856 253.905 123.731 253.95C123.558 254.011 123.405 254.11 123.285 254.238C123.165 254.367 123.081 254.521 123.043 254.687L122.111 258.748C122.078 258.895 122.081 259.047 122.12 259.193C122.159 259.339 122.233 259.476 122.336 259.592Z" fill="#2F2E41"/>
<path d="M180.249 255.632H181.668C181.787 255.632 181.883 255.543 181.883 255.434V254.812C181.883 254.702 181.787 254.614 181.668 254.614H180.249C180.13 254.614 180.034 254.702 180.034 254.812V255.434C180.034 255.543 180.13 255.632 180.249 255.632Z" fill="#3F3D56"/>
<path d="M176.551 255.632H177.969C178.088 255.632 178.185 255.543 178.185 255.434V254.812C178.185 254.702 178.088 254.614 177.969 254.614H176.551C176.432 254.614 176.335 254.702 176.335 254.812V255.434C176.335 255.543 176.432 255.632 176.551 255.632Z" fill="#3F3D56"/>
<path d="M172.852 255.632H174.27C174.389 255.632 174.486 255.543 174.486 255.434V254.812C174.486 254.702 174.389 254.614 174.27 254.614H172.852C172.733 254.614 172.636 254.702 172.636 254.812V255.434C172.636 255.543 172.733 255.632 172.852 255.632Z" fill="#3F3D56"/>
<path d="M169.153 255.632H170.571C170.69 255.632 170.787 255.543 170.787 255.434V254.812C170.787 254.702 170.69 254.614 170.571 254.614H169.153C169.034 254.614 168.937 254.702 168.937 254.812V255.434C168.937 255.543 169.034 255.632 169.153 255.632Z" fill="#3F3D56"/>
<path d="M165.454 255.632H166.872C166.991 255.632 167.088 255.543 167.088 255.434V254.812C167.088 254.702 166.991 254.614 166.872 254.614H165.454C165.335 254.614 165.238 254.702 165.238 254.812V255.434C165.238 255.543 165.335 255.632 165.454 255.632Z" fill="#3F3D56"/>
<path d="M161.755 255.632H163.174C163.293 255.632 163.389 255.543 163.389 255.434V254.812C163.389 254.702 163.293 254.614 163.174 254.614H161.755C161.636 254.614 161.54 254.702 161.54 254.812V255.434C161.54 255.543 161.636 255.632 161.755 255.632Z" fill="#3F3D56"/>
<path d="M158.056 255.632H159.474C159.593 255.632 159.69 255.543 159.69 255.434V254.812C159.69 254.702 159.593 254.614 159.474 254.614H158.056C157.937 254.614 157.84 254.702 157.84 254.812V255.434C157.84 255.543 157.937 255.632 158.056 255.632Z" fill="#3F3D56"/>
<path d="M154.357 255.632H155.776C155.895 255.632 155.991 255.543 155.991 255.434V254.812C155.991 254.702 155.895 254.614 155.776 254.614H154.357C154.238 254.614 154.142 254.702 154.142 254.812V255.434C154.142 255.543 154.238 255.632 154.357 255.632Z" fill="#3F3D56"/>
<path d="M150.659 255.632H152.077C152.196 255.632 152.292 255.543 152.292 255.434V254.812C152.292 254.702 152.196 254.614 152.077 254.614H150.659C150.54 254.614 150.443 254.702 150.443 254.812V255.434C150.443 255.543 150.54 255.632 150.659 255.632Z" fill="#3F3D56"/>
<path d="M146.959 255.632H148.378C148.497 255.632 148.593 255.543 148.593 255.434V254.812C148.593 254.702 148.497 254.614 148.378 254.614H146.959C146.84 254.614 146.744 254.702 146.744 254.812V255.434C146.744 255.543 146.84 255.632 146.959 255.632Z" fill="#3F3D56"/>
<path d="M143.261 255.632H144.679C144.798 255.632 144.895 255.543 144.895 255.434V254.812C144.895 254.702 144.798 254.614 144.679 254.614H143.261C143.142 254.614 143.045 254.702 143.045 254.812V255.434C143.045 255.543 143.142 255.632 143.261 255.632Z" fill="#3F3D56"/>
<path d="M139.562 255.632H140.98C141.099 255.632 141.196 255.543 141.196 255.434V254.812C141.196 254.702 141.099 254.614 140.98 254.614H139.562C139.443 254.614 139.346 254.702 139.346 254.812V255.434C139.346 255.543 139.443 255.632 139.562 255.632Z" fill="#3F3D56"/>
<path d="M135.863 255.632H137.282C137.401 255.632 137.497 255.543 137.497 255.434V254.812C137.497 254.702 137.401 254.614 137.282 254.614H135.863C135.744 254.614 135.648 254.702 135.648 254.812V255.434C135.648 255.543 135.744 255.632 135.863 255.632Z" fill="#3F3D56"/>
<path d="M132.164 255.632H133.582C133.701 255.632 133.798 255.543 133.798 255.434V254.812C133.798 254.702 133.701 254.614 133.582 254.614H132.164C132.045 254.614 131.948 254.702 131.948 254.812V255.434C131.948 255.543 132.045 255.632 132.164 255.632Z" fill="#3F3D56"/>
<path d="M128.465 255.632H129.884C130.003 255.632 130.099 255.543 130.099 255.434V254.812C130.099 254.702 130.003 254.614 129.884 254.614H128.465C128.346 254.614 128.25 254.702 128.25 254.812V255.434C128.25 255.543 128.346 255.632 128.465 255.632Z" fill="#3F3D56"/>
<path d="M124.767 255.632H126.185C126.304 255.632 126.4 255.543 126.4 255.434V254.812C126.4 254.702 126.304 254.614 126.185 254.614H124.767C124.647 254.614 124.551 254.702 124.551 254.812V255.434C124.551 255.543 124.647 255.632 124.767 255.632Z" fill="#3F3D56"/>
<path d="M180.293 257.328H181.712C181.831 257.328 181.927 257.239 181.927 257.13V256.508C181.927 256.399 181.831 256.31 181.712 256.31H180.293C180.174 256.31 180.078 256.399 180.078 256.508V257.13C180.078 257.239 180.174 257.328 180.293 257.328Z" fill="#3F3D56"/>
<path d="M176.595 257.328H178.013C178.132 257.328 178.229 257.239 178.229 257.13V256.508C178.229 256.399 178.132 256.31 178.013 256.31H176.595C176.476 256.31 176.379 256.399 176.379 256.508V257.13C176.379 257.239 176.476 257.328 176.595 257.328Z" fill="#3F3D56"/>
<path d="M172.895 257.328H174.314C174.433 257.328 174.529 257.239 174.529 257.13V256.508C174.529 256.399 174.433 256.31 174.314 256.31H172.895C172.776 256.31 172.68 256.399 172.68 256.508V257.13C172.68 257.239 172.776 257.328 172.895 257.328Z" fill="#3F3D56"/>
<path d="M169.197 257.328H170.615C170.734 257.328 170.831 257.239 170.831 257.13V256.508C170.831 256.399 170.734 256.31 170.615 256.31H169.197C169.078 256.31 168.981 256.399 168.981 256.508V257.13C168.981 257.239 169.078 257.328 169.197 257.328Z" fill="#3F3D56"/>
<path d="M165.498 257.328H166.916C167.035 257.328 167.132 257.239 167.132 257.13V256.508C167.132 256.399 167.035 256.31 166.916 256.31H165.498C165.379 256.31 165.282 256.399 165.282 256.508V257.13C165.282 257.239 165.379 257.328 165.498 257.328Z" fill="#3F3D56"/>
<path d="M161.799 257.328H163.217C163.336 257.328 163.433 257.239 163.433 257.13V256.508C163.433 256.399 163.336 256.31 163.217 256.31H161.799C161.68 256.31 161.583 256.399 161.583 256.508V257.13C161.583 257.239 161.68 257.328 161.799 257.328Z" fill="#3F3D56"/>
<path d="M158.1 257.328H159.518C159.637 257.328 159.734 257.239 159.734 257.13V256.508C159.734 256.399 159.637 256.31 159.518 256.31H158.1C157.981 256.31 157.884 256.399 157.884 256.508V257.13C157.884 257.239 157.981 257.328 158.1 257.328Z" fill="#3F3D56"/>
<path d="M154.401 257.328H155.82C155.939 257.328 156.035 257.239 156.035 257.13V256.508C156.035 256.399 155.939 256.31 155.82 256.31H154.401C154.282 256.31 154.186 256.399 154.186 256.508V257.13C154.186 257.239 154.282 257.328 154.401 257.328Z" fill="#3F3D56"/>
<path d="M150.702 257.328H152.12C152.239 257.328 152.336 257.239 152.336 257.13V256.508C152.336 256.399 152.239 256.31 152.12 256.31H150.702C150.583 256.31 150.486 256.399 150.486 256.508V257.13C150.486 257.239 150.583 257.328 150.702 257.328Z" fill="#3F3D56"/>
<path d="M147.003 257.328H148.422C148.541 257.328 148.637 257.239 148.637 257.13V256.508C148.637 256.399 148.541 256.31 148.422 256.31H147.003C146.884 256.31 146.788 256.399 146.788 256.508V257.13C146.788 257.239 146.884 257.328 147.003 257.328Z" fill="#3F3D56"/>
<path d="M143.305 257.328H144.723C144.842 257.328 144.938 257.239 144.938 257.13V256.508C144.938 256.399 144.842 256.31 144.723 256.31H143.305C143.186 256.31 143.089 256.399 143.089 256.508V257.13C143.089 257.239 143.186 257.328 143.305 257.328Z" fill="#3F3D56"/>
<path d="M139.605 257.328H141.024C141.143 257.328 141.239 257.239 141.239 257.13V256.508C141.239 256.399 141.143 256.31 141.024 256.31H139.605C139.486 256.31 139.39 256.399 139.39 256.508V257.13C139.39 257.239 139.486 257.328 139.605 257.328Z" fill="#3F3D56"/>
<path d="M135.907 257.328H137.325C137.444 257.328 137.541 257.239 137.541 257.13V256.508C137.541 256.399 137.444 256.31 137.325 256.31H135.907C135.788 256.31 135.691 256.399 135.691 256.508V257.13C135.691 257.239 135.788 257.328 135.907 257.328Z" fill="#3F3D56"/>
<path d="M132.208 257.328H133.626C133.745 257.328 133.842 257.239 133.842 257.13V256.508C133.842 256.399 133.745 256.31 133.626 256.31H132.208C132.089 256.31 131.992 256.399 131.992 256.508V257.13C131.992 257.239 132.089 257.328 132.208 257.328Z" fill="#3F3D56"/>
<path d="M128.509 257.328H129.927C130.046 257.328 130.143 257.239 130.143 257.13V256.508C130.143 256.399 130.046 256.31 129.927 256.31H128.509C128.39 256.31 128.293 256.399 128.293 256.508V257.13C128.293 257.239 128.39 257.328 128.509 257.328Z" fill="#3F3D56"/>
<path d="M124.81 257.328H126.228C126.347 257.328 126.444 257.239 126.444 257.13V256.508C126.444 256.399 126.347 256.31 126.228 256.31H124.81C124.691 256.31 124.594 256.399 124.594 256.508V257.13C124.594 257.239 124.691 257.328 124.81 257.328Z" fill="#3F3D56"/>
<path d="M149.592 259.363H163.957C164.076 259.363 164.172 259.275 164.172 259.166V258.543C164.172 258.434 164.076 258.346 163.957 258.346H149.592C149.473 258.346 149.377 258.434 149.377 258.543V259.166C149.377 259.275 149.473 259.363 149.592 259.363Z" fill="#3F3D56"/>
<path d="M257.837 257.705L282.935 237.579C284.128 236.623 281.852 239.473 282.896 240.568C283.939 241.663 287.906 240.586 286.713 241.543L261.615 261.668L255.259 262.999L257.837 257.705Z" fill="#3F3D56"/>
<path d="M257.837 257.705L258.445 257.217C259.257 257.59 259.982 258.106 260.578 258.734C261.284 259.473 261.797 260.35 262.077 261.298L261.615 261.668L256.55 262.729L255.259 262.999L255.797 261.89L257.837 257.705Z" fill="#CCCCCC"/>
<path d="M255.797 261.89C255.985 261.966 256.151 262.082 256.282 262.227C256.413 262.373 256.504 262.545 256.55 262.729L255.259 262.999L255.797 261.89Z" fill="#3F3D56"/>
<path d="M421.592 193.202C419.225 196.45 415.437 198.697 411.357 199.811C409.7 200.263 407.989 200.53 406.261 200.605C406.048 198.813 405.537 197.063 404.747 195.413C404.827 197.169 404.561 198.924 403.961 200.593C401.367 200.458 398.832 199.835 396.512 198.762C391.986 196.636 388.502 192.57 387.729 187.957C386.82 182.571 389.482 177.282 390.445 171.903C391.412 166.525 389.597 159.713 383.857 158.3C379.486 157.223 379.976 157.688 376.342 160.163C380.122 165.289 366.16 184.075 360.446 182.437C357.215 181.511 355.147 178.792 354.48 178.792C349.99 185.888 358.446 197.843 349.924 200.325L350.626 199.681C355.77 193.878 345.018 181.595 350.162 175.791C351.597 174.167 353.125 172.244 352.701 170.19C352.299 168.238 348.921 167.206 347.932 168.809C349.712 165.071 347.084 160.082 342.735 159.122C338.872 158.267 338.942 159.32 335.065 159.778C334.812 158.241 334.338 156.742 333.657 155.319C333.728 156.852 333.533 158.386 333.078 159.863C331.709 159.839 330.386 159.4 329.316 158.616C326.155 156.279 326.795 151.371 329.617 148.694C332.442 146.017 336.642 145.053 340.647 144.429C341.811 136.993 364.179 136.217 367.144 143.647C368.407 138.099 375.98 135.22 381.866 136.941C387.752 138.662 391.836 143.704 393.986 149.018C396.137 154.327 396.737 160.041 398.062 165.573C399.386 171.106 401.625 176.739 406.235 180.509C410.845 184.276 418.356 185.523 423.213 182.024C424.745 185.669 423.955 189.95 421.592 193.202Z" fill="#2F2E41"/>
</g>
<defs>
<clipPath id="clip0_319_2">
<rect width="375" height="341" fill="white" transform="translate(49 30)"/>
</clipPath>
</defs>
</svg>
