<svg width="467" height="334" viewBox="0 0 467 334" fill="none" xmlns="http://www.w3.org/2000/svg">
<ellipse cx="203.5" cy="167" rx="174.5" ry="167" fill="#F9CE69"/>
<g clip-path="url(#clip0_319_3)">
<path d="M398.457 179.419C398.878 179.313 399.272 179.113 399.611 178.834C399.949 178.555 400.223 178.203 400.414 177.804C400.606 177.404 400.709 176.967 400.717 176.522C400.725 176.077 400.638 175.636 400.462 175.23L408.175 167.844L402.839 166.531L396.333 173.746C395.685 174.094 395.185 174.674 394.927 175.375C394.67 176.076 394.672 176.849 394.934 177.548C395.195 178.247 395.699 178.824 396.348 179.169C396.997 179.514 397.747 179.603 398.457 179.419Z" fill="#FFB6B6"/>
<path d="M402.441 173.47L398.844 168.277L412.355 153.97L415.492 131.418C415.647 130.303 416.04 129.237 416.643 128.295C417.245 127.353 418.043 126.559 418.98 125.968C419.916 125.378 420.968 125.006 422.061 124.878C423.153 124.75 424.26 124.871 425.302 125.23C427.184 125.882 428.736 127.271 429.619 129.093C430.501 130.916 430.641 133.022 430.009 134.95L422.005 159.263L402.441 173.47Z" fill="#E4E4E4"/>
<path d="M427.809 269.562H423.816L421.917 253.793L427.81 253.793L427.809 269.562Z" fill="#FFB6B6"/>
<path d="M429.957 277.325H427.124L426.618 274.586L425.323 277.325H417.808C417.448 277.325 417.097 277.207 416.807 276.988C416.517 276.77 416.302 276.462 416.195 276.11C416.088 275.758 416.094 275.38 416.211 275.031C416.328 274.682 416.552 274.381 416.848 274.172L422.849 269.928V267.16L429.162 267.545L429.957 277.325Z" fill="#2F2E41"/>
<path d="M452.444 265.402L448.937 267.356L439.907 254.434L445.083 251.55L452.444 265.402Z" fill="#FFB6B6"/>
<path d="M457.955 271.169L455.466 272.556L453.743 270.397L453.884 273.437L447.283 277.114C446.967 277.291 446.604 277.359 446.247 277.309C445.89 277.259 445.558 277.093 445.3 276.837C445.041 276.58 444.869 276.245 444.81 275.881C444.75 275.518 444.806 275.144 444.968 274.815L448.259 268.151L446.966 265.719L452.691 262.969L457.955 271.169Z" fill="#2F2E41"/>
<path d="M429.492 263.947H421.239V233.861L416.131 214.247C412.464 200.22 411.49 185.598 413.261 171.191L413.269 171.132L413.313 171.094C413.444 170.981 426.52 159.912 434.79 168.38C440.365 174.087 435.127 194.611 434.834 195.737V231.118L429.492 263.947Z" fill="#2F2E41"/>
<path d="M429.471 122.088L429.428 122.043L418.906 122.207L413.288 135.707C408.088 143.976 413.06 148.68 413.41 149.425L412.415 159.572L411.775 166.118L410.746 176.657L434.861 168.591L432.178 157.59L435.278 141.721C435.966 138.212 435.797 134.584 434.783 131.158C433.77 127.733 431.945 124.617 429.471 122.088Z" fill="#E4E4E4"/>
<path d="M424.569 234.016L441.521 258.43L448.024 253.696L433.866 223.908L424.569 234.016Z" fill="#2F2E41"/>
<path d="M423.184 119.464C428.548 119.464 432.897 115.012 432.897 109.519C432.897 104.026 428.548 99.5736 423.184 99.5736C417.819 99.5736 413.47 104.026 413.47 109.519C413.47 115.012 417.819 119.464 423.184 119.464Z" fill="#FFB6B6"/>
<path opacity="0.1" d="M432.552 147.994L421.957 160.51L411.775 166.118L412.415 159.572L418.411 156.125L432.552 147.994Z" fill="black"/>
<path d="M416.38 128.157L415.468 124.068C415.169 122.7 415.14 121.284 415.383 119.904C415.627 118.524 416.137 117.207 416.885 116.032C417.572 114.925 417.955 113.648 417.993 112.336C418.032 111.025 417.725 109.727 417.104 108.579C416.646 107.651 415.95 106.868 415.091 106.313C414.232 105.759 413.241 105.455 412.226 105.433H411.983V105.184C411.983 101.618 414.698 99.101 417.222 98.9567C417.313 98.2146 417.827 97.5494 418.721 97.0212C420.858 95.7599 424.99 95.4863 428.111 97.1674C428.169 96.6239 428.369 96.1064 428.691 95.67C429.013 95.2335 429.444 94.8943 429.938 94.6882C430.451 94.5056 431.004 94.4731 431.534 94.5943C431.579 93.7003 431.94 92.8535 432.549 92.2109C433.41 91.3558 434.793 91.0308 436.342 91.3175C438.47 91.7128 440.567 93.1004 442.247 95.2254C443.737 97.1092 444.771 99.3294 445.771 101.476C446.755 103.588 447.772 105.771 449.246 107.62C450.861 109.645 452.862 110.958 454.88 111.315C457.235 111.732 459.651 110.74 460.756 108.902L460.976 108.538L461.176 108.914C462.418 111.251 461.91 114.462 459.967 116.549C458.226 118.421 455.492 119.375 452.657 119.098C450.257 118.864 447.837 117.82 445.463 115.995C443.104 114.182 441.646 112.177 441.128 110.038C440.983 109.376 440.879 108.705 440.816 108.029C440.656 106.615 440.504 105.278 439.654 104.294C438.89 103.41 437.708 103.027 436.659 102.737L436.454 102.681C436.416 103.079 436.294 103.465 436.096 103.81C435.898 104.155 435.629 104.452 435.308 104.68C435.115 104.799 434.903 104.882 434.682 104.927C435.897 109.936 435.398 113.771 433.195 116.328C429.477 120.644 422.332 119.756 422.03 119.717L421.829 119.69L421.818 119.483C421.791 118.926 421.725 118.373 421.62 117.826C420.596 120.35 417.154 127.026 416.693 127.699L416.38 128.157Z" fill="#2F2E41"/>
<path d="M73.3393 144.216C73.0553 144.598 72.6928 144.912 72.2774 145.136C71.862 145.36 71.4037 145.487 70.9349 145.51C70.4661 145.532 69.9982 145.449 69.564 145.267C69.1299 145.084 68.7402 144.807 68.4223 144.453L57.9607 149.111L58.9797 143.132L68.758 139.625C69.3733 139.118 70.1491 138.859 70.9384 138.898C71.7276 138.937 72.4754 139.271 73.0401 139.837C73.6049 140.403 73.9472 141.161 74.0024 141.968C74.0575 142.775 73.8216 143.575 73.3393 144.216V144.216Z" fill="#A0616A"/>
<path d="M66.358 146.083L42.0593 157.164L42.0072 157.145L14.3128 147.041C12.2499 145.937 10.6772 144.068 9.9167 141.815C9.15617 139.563 9.26534 137.098 10.2219 134.926C10.7521 133.726 11.5245 132.654 12.4885 131.781C13.4524 130.908 14.5859 130.255 15.8144 129.863C17.0429 129.471 18.3385 129.35 19.616 129.508C20.8934 129.666 22.1237 130.099 23.2259 130.779L43.8357 143.49L63.8207 140.838L66.358 146.083Z" fill="#3F3D56"/>
<path d="M76.5382 73.1206C67.3524 52.3179 67.6911 25.9494 81.9472 8.3952C86.7167 32.737 99.742 54.567 118.719 70.0229C126.058 75.9564 134.825 81.7734 136.83 91.1256C138.078 96.9447 136.309 103.1 133.252 108.169C130.195 113.238 125.933 117.407 121.72 121.517L121.247 122.923C102.914 109.927 85.7241 93.9233 76.5382 73.1206Z" fill="#F0F0F0"/>
<path d="M82.3439 8.64902C79.063 27.0426 81.5003 46.6285 89.4749 63.4805C91.1989 67.1238 93.2576 70.6661 96.0138 73.5964C98.7218 76.4315 102.122 78.4724 105.861 79.5072C109.328 80.5436 112.992 81.1927 116.153 83.0741C119.485 85.0572 121.552 88.3846 122.358 92.2004C123.343 96.8691 122.631 101.622 121.778 106.245C120.83 111.378 119.765 116.694 121.139 121.855C121.306 122.48 120.348 122.708 120.182 122.083C117.792 113.106 122.439 104.251 121.789 95.2251C121.486 91.0134 119.942 86.8696 116.415 84.4294C113.33 82.2955 109.552 81.6228 106.033 80.6044C102.337 79.5351 99.0184 77.9017 96.1943 75.1922C93.3053 72.4206 91.1071 68.9533 89.2996 65.371C85.26 57.2165 82.4979 48.4624 81.1144 39.4295C79.4795 29.1292 79.5777 18.6184 81.4047 8.35204C81.518 7.71667 82.4565 8.01778 82.3439 8.64902Z" fill="white"/>
<path d="M86.6007 58.1428C83.6248 59.1193 80.4067 58.9809 77.5212 57.7524C74.6357 56.5239 72.2707 54.2853 70.8485 51.4363C70.5627 50.8588 71.4257 50.3769 71.7119 50.9552C73.0315 53.6106 75.2347 55.6957 77.9239 56.8341C80.6132 57.9724 83.6113 58.0891 86.3772 57.1629C86.9785 56.9624 87.1985 57.9434 86.6007 58.1428L86.6007 58.1428Z" fill="white"/>
<path d="M104.035 79.2187C107.009 73.4301 107.743 66.7066 106.089 60.3889C105.925 59.7631 106.882 59.535 107.046 60.1601C108.755 66.7377 107.978 73.733 104.87 79.7498C104.574 80.3231 103.74 79.7889 104.035 79.2187Z" fill="white"/>
<path d="M80.7429 29.456C81.9713 29.3239 83.1483 28.8814 84.1684 28.1684C85.1884 27.4554 86.0196 26.4941 86.5871 25.371C86.8764 24.7941 87.7093 25.3289 87.4218 25.902C86.7892 27.1399 85.87 28.2004 84.7447 28.9907C83.6194 29.781 82.3222 30.2772 80.9664 30.4359C80.8398 30.4618 80.7084 30.4374 80.5987 30.3676C80.4891 30.2979 80.4095 30.188 80.3762 30.0604C80.3472 29.9305 80.3695 29.7941 80.4382 29.681C80.5068 29.5678 80.6164 29.487 80.7429 29.456Z" fill="white"/>
<path d="M157.445 8.59896C157.274 8.96442 157.103 9.32986 156.937 9.70279C154.667 14.6282 152.792 19.7343 151.331 24.9705C151.211 25.3735 151.096 25.7838 150.989 26.1895C147.598 38.8433 146.532 52.0317 147.843 65.0841C148.37 70.2775 149.282 75.4223 150.571 80.474C152.352 87.4506 154.824 94.8699 154.266 101.836C154.216 102.564 154.122 103.287 153.984 104.003L122.959 123.404C122.867 123.412 122.779 123.428 122.687 123.436L121.482 124.268C121.398 124.012 121.316 123.745 121.232 123.49C121.182 123.341 121.14 123.189 121.09 123.041C121.06 122.941 121.029 122.84 120.996 122.752C120.985 122.718 120.975 122.685 120.969 122.659C120.936 122.57 120.914 122.484 120.885 122.403C120.423 120.911 119.97 119.413 119.526 117.909C119.522 117.902 119.522 117.902 119.524 117.89C116.173 106.423 113.727 94.5688 113.116 82.7112C113.098 82.3545 113.075 81.9906 113.071 81.625C112.824 76.2786 113.005 70.9205 113.611 65.6042C113.953 62.6943 114.437 59.8039 115.064 56.9442C116.697 49.5582 119.454 42.4812 123.235 35.9726C130.774 22.9988 142.282 12.6381 156.366 8.87564C156.726 8.77961 157.08 8.68768 157.445 8.59896Z" fill="#F0F0F0"/>
<path d="M157.615 9.04573C144.179 21.7096 134.608 38.8502 131.065 57.2213C130.3 61.193 129.86 65.2903 130.338 69.329C130.833 73.2619 132.347 76.9874 134.724 80.1183C136.883 83.0832 139.427 85.86 140.844 89.3106C142.338 92.9476 142.032 96.8789 140.432 100.422C138.473 104.757 135.11 108.113 131.71 111.278C127.934 114.793 123.958 118.381 122.021 123.348C121.786 123.95 120.888 123.542 121.122 122.941C124.493 114.3 133.41 110.094 138.199 102.487C140.434 98.9373 141.637 94.6766 140.256 90.5539C139.048 86.9489 136.428 84.0831 134.216 81.1005C131.894 77.9686 130.205 74.6186 129.543 70.7144C128.867 66.7206 129.15 62.5971 129.814 58.6227C131.384 49.6217 134.326 40.9295 138.533 32.8643C143.285 23.6324 149.544 15.3007 157.04 8.2297C157.504 7.79225 158.077 8.61114 157.615 9.04573V9.04573Z" fill="white"/>
<path d="M131.909 51.1876C128.959 50.1329 126.471 48.0387 124.889 45.2792C123.308 42.5196 122.736 39.2743 123.276 36.1229C123.387 35.4856 124.36 35.6329 124.248 36.271C123.74 39.2046 124.273 42.2276 125.751 44.7942C127.229 47.3608 129.554 49.302 132.307 50.2675C132.905 50.4781 132.504 51.397 131.909 51.1876H131.909Z" fill="white"/>
<path d="M133.436 78.7626C139.215 75.9738 143.754 71.0576 146.149 64.9943C146.386 64.3933 147.284 64.8013 147.048 65.4015C144.544 71.7063 139.81 76.8126 133.79 79.7012C133.216 79.9761 132.865 79.0361 133.436 78.7626Z" fill="white"/>
<path d="M144.102 24.6721C145.16 25.3238 146.36 25.696 147.594 25.7555C148.828 25.815 150.056 25.5598 151.17 25.0129C151.74 24.7306 152.091 25.671 151.524 25.9514C150.291 26.5499 148.934 26.83 147.57 26.7674C146.207 26.7048 144.88 26.3013 143.704 25.5922C143.588 25.5349 143.497 25.4344 143.45 25.3111C143.404 25.1878 143.405 25.051 143.453 24.9285C143.507 24.807 143.605 24.7119 143.726 24.6639C143.847 24.6158 143.982 24.6188 144.102 24.6721Z" fill="white"/>
<path d="M276.402 84.0473C267.216 63.2446 267.555 36.8761 281.811 19.3219C286.58 43.6637 299.606 65.4937 318.582 80.9496C325.922 86.8831 334.689 92.7002 336.694 102.052C337.942 107.871 336.173 114.026 333.116 119.095C330.058 124.164 325.797 128.334 321.583 132.443L321.111 133.85C302.778 120.854 285.588 104.85 276.402 84.0473Z" fill="#F0F0F0"/>
<path d="M282.208 19.5757C278.927 37.9694 281.364 57.5552 289.339 74.4072C291.063 78.0506 293.122 81.5928 295.878 84.5231C298.586 87.3582 301.986 89.3992 305.725 90.4339C309.192 91.4704 312.856 92.1195 316.017 94.0008C319.349 95.9839 321.416 99.3113 322.222 103.127C323.207 107.796 322.495 112.549 321.642 117.172C320.694 122.305 319.629 127.621 321.003 132.781C321.17 133.407 320.212 133.634 320.046 133.01C317.656 124.032 322.303 115.178 321.653 106.152C321.35 101.94 319.806 97.7963 316.279 95.3561C313.194 93.2222 309.416 92.5495 305.897 91.5311C302.201 90.4618 298.882 88.8284 296.058 86.1189C293.169 83.3473 290.971 79.88 289.164 76.2978C285.124 68.1432 282.362 59.3892 280.978 50.3562C279.344 40.0559 279.442 29.5452 281.269 19.2788C281.382 18.6434 282.32 18.9445 282.208 19.5757Z" fill="white"/>
<path d="M286.464 69.0695C283.489 70.046 280.27 69.9076 277.385 68.6791C274.499 67.4506 272.134 65.212 270.712 62.363C270.426 61.7855 271.289 61.3036 271.576 61.8819C272.895 64.5374 275.098 66.6224 277.788 67.7608C280.477 68.8991 283.475 69.0158 286.241 68.0897C286.842 67.8891 287.062 68.8701 286.464 69.0695V69.0695Z" fill="white"/>
<path d="M303.899 90.1454C306.873 84.3568 307.606 77.6333 305.953 71.3156C305.789 70.6898 306.746 70.4617 306.91 71.0868C308.619 77.6644 307.841 84.6597 304.734 90.6765C304.437 91.2498 303.604 90.7156 303.899 90.1454Z" fill="white"/>
<path d="M280.607 40.3827C281.835 40.2506 283.012 39.8081 284.032 39.0951C285.052 38.3821 285.884 37.4208 286.451 36.2977C286.74 35.7208 287.573 36.2556 287.286 36.8287C286.653 38.0667 285.734 39.1271 284.609 39.9174C283.483 40.7078 282.186 41.2039 280.83 41.3626C280.704 41.3885 280.572 41.3641 280.463 41.2944C280.353 41.2246 280.274 41.1147 280.24 40.9871C280.211 40.8572 280.233 40.7209 280.302 40.6077C280.371 40.4945 280.48 40.4137 280.607 40.3827Z" fill="white"/>
<path d="M357.308 19.5257C357.138 19.8911 356.967 20.2566 356.801 20.6295C354.531 25.5549 352.656 30.661 351.194 35.8973C351.075 36.3003 350.96 36.7105 350.852 37.1162C347.462 49.7701 346.395 62.9584 347.707 76.0108C348.234 81.2042 349.146 86.349 350.435 91.4008C352.215 98.3773 354.688 105.797 354.13 112.763C354.08 113.49 353.986 114.214 353.848 114.93L322.823 134.331C322.731 134.339 322.643 134.354 322.55 134.362L321.346 135.195C321.262 134.939 321.18 134.672 321.096 134.416C321.046 134.268 321.004 134.116 320.954 133.967C320.923 133.867 320.893 133.767 320.86 133.678C320.849 133.645 320.839 133.612 320.833 133.585C320.8 133.497 320.778 133.411 320.749 133.33C320.286 131.838 319.833 130.34 319.39 128.836C319.385 128.829 319.385 128.829 319.388 128.817C316.036 117.35 313.591 105.496 312.98 93.6379C312.961 93.2812 312.939 92.9174 312.934 92.5518C312.688 87.2053 312.869 81.8472 313.475 76.5309C313.816 73.621 314.301 70.7306 314.928 67.8709C316.561 60.485 319.318 53.4079 323.099 46.8993C330.638 33.9255 342.146 23.5648 356.23 19.8024C356.59 19.7063 356.944 19.6144 357.308 19.5257Z" fill="#F0F0F0"/>
<path d="M357.479 19.9725C344.043 32.6363 334.472 49.777 330.929 68.148C330.163 72.1198 329.724 76.2171 330.201 80.2557C330.696 84.1887 332.211 87.9141 334.588 91.0451C336.747 94.01 339.291 96.7867 340.708 100.237C342.202 103.874 341.896 107.806 340.295 111.349C338.337 115.684 334.974 119.04 331.573 122.205C327.798 125.719 323.822 129.308 321.884 134.275C321.65 134.877 320.751 134.469 320.986 133.868C324.357 125.226 333.274 121.021 338.063 113.414C340.298 109.864 341.501 105.603 340.12 101.481C338.912 97.8756 336.291 95.0099 334.08 92.0272C331.758 88.8954 330.069 85.5453 329.407 81.6411C328.73 77.6474 329.014 73.5239 329.677 69.5494C331.247 60.5485 334.19 51.8562 338.397 43.791C343.149 34.5591 349.408 26.2274 356.904 19.1564C357.368 18.719 357.94 19.5379 357.479 19.9725V19.9725Z" fill="white"/>
<path d="M331.773 62.1144C328.823 61.0596 326.335 58.9654 324.753 56.2059C323.172 53.4463 322.6 50.2011 323.139 47.0496C323.251 46.4124 324.223 46.5596 324.112 47.1977C323.604 50.1314 324.137 53.1543 325.615 55.7209C327.092 58.2875 329.418 60.2288 332.171 61.1942C332.769 61.4048 332.368 62.3237 331.773 62.1144Z" fill="white"/>
<path d="M333.3 89.6894C339.078 86.9005 343.618 81.9843 346.013 75.921C346.25 75.3201 347.148 75.728 346.912 76.3282C344.408 82.6331 339.673 87.7393 333.654 90.6279C333.08 90.9028 332.729 89.9628 333.3 89.6894Z" fill="white"/>
<path d="M343.965 35.5988C345.024 36.2505 346.224 36.6228 347.458 36.6823C348.691 36.7417 349.92 36.4865 351.034 35.9396C351.604 35.6574 351.955 36.5978 351.388 36.8782C350.155 37.4766 348.797 37.7567 347.434 37.6941C346.071 37.6315 344.743 37.228 343.568 36.5189C343.451 36.4616 343.361 36.3611 343.314 36.2378C343.268 36.1146 343.269 35.9778 343.317 35.8553C343.37 35.7337 343.468 35.6386 343.59 35.5906C343.711 35.5426 343.846 35.5455 343.965 35.5988Z" fill="white"/>
<path d="M90.6206 220.743H326.955V80.6586C326.954 79.609 326.546 78.6027 325.821 77.8606C325.096 77.1184 324.114 76.7009 323.088 76.6998H94.4874C93.4622 76.7009 92.4794 77.1184 91.7545 77.8606C91.0296 78.6027 90.6218 79.609 90.6206 80.6586V220.743Z" fill="#CACACA"/>
<path d="M319.653 82.1751H97.9226V211.056H319.653V82.1751Z" fill="white"/>
<path d="M90.415 216.953V234.239C90.415 234.956 90.5529 235.665 90.8207 236.328C91.0886 236.99 91.4812 237.591 91.9761 238.098C92.4711 238.605 93.0586 239.007 93.7053 239.281C94.352 239.555 95.0451 239.696 95.745 239.696H182.974V273.812H181.815C181.725 273.812 181.634 273.83 181.55 273.866C181.466 273.901 181.39 273.954 181.326 274.02C181.262 274.085 181.211 274.163 181.176 274.249C181.141 274.335 181.123 274.428 181.123 274.521V276.894C181.123 276.987 181.141 277.079 181.176 277.165C181.211 277.251 181.262 277.329 181.326 277.395C181.39 277.461 181.466 277.513 181.55 277.549C181.634 277.584 181.725 277.603 181.815 277.603H235.966C236.057 277.603 236.147 277.584 236.231 277.549C236.315 277.513 236.392 277.461 236.456 277.395C236.52 277.329 236.571 277.251 236.606 277.165C236.641 277.079 236.659 276.987 236.659 276.894V274.521C236.659 274.428 236.641 274.335 236.606 274.249C236.571 274.163 236.52 274.085 236.456 274.02C236.392 273.954 236.315 273.901 236.231 273.866C236.147 273.83 236.057 273.812 235.966 273.812H234.807V239.696H322.037C322.737 239.696 323.43 239.555 324.076 239.281C324.723 239.007 325.311 238.605 325.806 238.098C326.3 237.591 326.693 236.99 326.961 236.328C327.229 235.665 327.367 234.956 327.367 234.239V216.953L90.415 216.953Z" fill="#3F3D56"/>
<path d="M166.87 145.912H112.836C112.459 145.911 112.098 145.758 111.832 145.485C111.566 145.213 111.416 144.843 111.416 144.457V122.01C111.416 121.625 111.566 121.255 111.832 120.982C112.098 120.71 112.459 120.556 112.836 120.556H166.87C167.247 120.556 167.608 120.71 167.874 120.982C168.14 121.255 168.29 121.625 168.29 122.01V144.457C168.29 144.843 168.14 145.213 167.874 145.485C167.608 145.758 167.247 145.911 166.87 145.912Z" fill="#F9CE69"/>
<path d="M161.725 156.68H117.981C117.529 156.68 117.095 156.496 116.776 156.169C116.456 155.841 116.277 155.398 116.277 154.935C116.277 154.472 116.456 154.028 116.776 153.701C117.095 153.374 117.529 153.19 117.981 153.19H161.725C163.923 153.158 163.945 156.711 161.725 156.68Z" fill="#E4E4E4"/>
<path d="M161.725 164.677H117.981C117.529 164.677 117.095 164.494 116.776 164.166C116.456 163.839 116.277 163.395 116.277 162.932C116.277 162.47 116.456 162.026 116.776 161.699C117.095 161.371 117.529 161.187 117.981 161.187H161.725C163.923 161.156 163.945 164.709 161.725 164.677Z" fill="#E4E4E4"/>
<path d="M161.725 172.675H117.981C117.529 172.675 117.095 172.491 116.776 172.164C116.456 171.837 116.277 171.393 116.277 170.93C116.277 170.467 116.456 170.023 116.776 169.696C117.095 169.369 117.529 169.185 117.981 169.185H161.725C163.923 169.154 163.945 172.707 161.725 172.675Z" fill="#E4E4E4"/>
<path d="M235.805 145.912H181.771C181.394 145.911 181.033 145.758 180.767 145.485C180.501 145.213 180.351 144.843 180.351 144.457V122.01C180.351 121.625 180.501 121.255 180.767 120.982C181.033 120.71 181.394 120.556 181.771 120.556H235.805C236.182 120.556 236.543 120.71 236.809 120.982C237.075 121.255 237.225 121.625 237.225 122.01V144.457C237.225 144.843 237.075 145.213 236.809 145.485C236.543 145.758 236.182 145.911 235.805 145.912Z" fill="#F9CE69"/>
<path d="M230.66 156.68H186.916C186.464 156.68 186.03 156.496 185.711 156.169C185.391 155.841 185.212 155.398 185.212 154.935C185.212 154.472 185.391 154.028 185.711 153.701C186.03 153.374 186.464 153.19 186.916 153.19H230.66C232.858 153.158 232.88 156.711 230.66 156.68Z" fill="#E4E4E4"/>
<path d="M230.66 164.677H186.916C186.464 164.677 186.03 164.494 185.711 164.166C185.391 163.839 185.212 163.395 185.212 162.932C185.212 162.47 185.391 162.026 185.711 161.699C186.03 161.371 186.464 161.187 186.916 161.187H230.66C232.858 161.156 232.88 164.709 230.66 164.677Z" fill="#E4E4E4"/>
<path d="M230.66 172.675H186.916C186.464 172.675 186.03 172.491 185.711 172.164C185.391 171.837 185.212 171.393 185.212 170.93C185.212 170.467 185.391 170.023 185.711 169.696C186.03 169.369 186.464 169.185 186.916 169.185H230.66C232.858 169.154 232.88 172.707 230.66 172.675Z" fill="#E4E4E4"/>
<path d="M304.74 145.912H250.706C250.329 145.911 249.968 145.758 249.702 145.485C249.436 145.213 249.286 144.843 249.286 144.457V122.01C249.286 121.625 249.436 121.255 249.702 120.982C249.968 120.71 250.329 120.556 250.706 120.556H304.74C305.117 120.556 305.478 120.71 305.744 120.982C306.01 121.255 306.16 121.625 306.16 122.01V144.457C306.16 144.843 306.01 145.213 305.744 145.485C305.478 145.758 305.117 145.911 304.74 145.912Z" fill="#F9CE69"/>
<path d="M299.595 156.68H255.851C255.399 156.68 254.965 156.496 254.646 156.169C254.326 155.841 254.146 155.398 254.146 154.935C254.146 154.472 254.326 154.028 254.646 153.701C254.965 153.374 255.399 153.19 255.851 153.19H299.595C301.793 153.158 301.815 156.711 299.595 156.68Z" fill="#E4E4E4"/>
<path d="M299.595 164.677H255.851C255.399 164.677 254.967 164.492 254.648 164.165C254.329 163.838 254.149 163.395 254.149 162.932C254.149 162.47 254.329 162.027 254.648 161.7C254.967 161.372 255.399 161.188 255.851 161.187H299.595C301.793 161.156 301.815 164.709 299.595 164.677Z" fill="#E4E4E4"/>
<path d="M299.595 172.675H255.851C255.399 172.675 254.965 172.491 254.646 172.164C254.326 171.837 254.146 171.393 254.146 170.93C254.146 170.467 254.326 170.023 254.646 169.696C254.965 169.369 255.399 169.185 255.851 169.185H299.595C301.793 169.154 301.815 172.707 299.595 172.675Z" fill="#E4E4E4"/>
<path d="M397.073 120.859L397.22 148.995L397.823 148.96L398.395 159.377L397.277 159.439L397.308 165.697L398.203 165.679L398.384 176.105L397.365 176.124L397.851 267.936C397.861 270.34 396.94 272.65 395.288 274.36C393.637 276.069 391.391 277.037 389.043 277.053L289.985 277.602C287.636 277.613 285.38 276.67 283.711 274.979C282.041 273.289 281.095 270.989 281.08 268.585L280.302 121.508C280.292 119.104 281.213 116.793 282.865 115.084C284.516 113.375 286.762 112.406 289.11 112.391L388.168 111.841C390.516 111.831 392.772 112.775 394.441 114.466C396.11 116.156 397.057 118.455 397.073 120.859Z" fill="#3F3D56"/>
<path d="M389.186 271.269L289.779 271.821C289.056 271.824 288.36 271.533 287.846 271.012C287.331 270.491 287.039 269.782 287.035 269.041L286.251 120.986C286.247 120.245 286.532 119.533 287.041 119.006C287.55 118.479 288.242 118.181 288.966 118.176L388.372 117.624C389.096 117.621 389.792 117.912 390.306 118.433C390.821 118.954 391.112 119.663 391.117 120.404L391.901 268.459C391.904 269.2 391.62 269.912 391.111 270.438C390.602 270.965 389.91 271.264 389.186 271.269Z" fill="white"/>
<path d="M338.276 115.665C338.692 115.665 339.03 115.32 339.03 114.894C339.03 114.468 338.692 114.123 338.276 114.123C337.86 114.123 337.523 114.468 337.523 114.894C337.523 115.32 337.86 115.665 338.276 115.665Z" fill="white"/>
<path d="M367.843 159.296H310.309C309.908 159.296 309.524 159.133 309.24 158.842C308.957 158.552 308.797 158.159 308.797 157.748V133.847C308.797 133.437 308.957 133.043 309.24 132.753C309.524 132.463 309.908 132.299 310.309 132.299H367.843C368.244 132.299 368.628 132.463 368.912 132.753C369.195 133.043 369.355 133.437 369.355 133.847V157.748C369.355 158.159 369.195 158.552 368.912 158.842C368.628 159.133 368.244 159.296 367.843 159.296Z" fill="#F9CE69"/>
<path d="M362.364 170.762H315.787C315.306 170.762 314.844 170.566 314.504 170.218C314.164 169.869 313.973 169.397 313.973 168.904C313.973 168.411 314.164 167.939 314.504 167.59C314.844 167.242 315.306 167.046 315.787 167.046H362.364C364.705 167.013 364.728 170.796 362.364 170.762Z" fill="#E4E4E4"/>
<path d="M362.364 179.278H315.787C315.307 179.277 314.846 179.081 314.506 178.732C314.166 178.384 313.976 177.912 313.976 177.42C313.976 176.927 314.166 176.455 314.506 176.107C314.846 175.759 315.307 175.562 315.787 175.562H362.364C364.705 175.528 364.728 179.311 362.364 179.278Z" fill="#E4E4E4"/>
<path d="M362.364 187.793H315.787C315.306 187.793 314.844 187.597 314.504 187.249C314.164 186.901 313.973 186.428 313.973 185.935C313.973 185.442 314.164 184.97 314.504 184.621C314.844 184.273 315.306 184.077 315.787 184.077H362.364C364.705 184.044 364.728 187.827 362.364 187.793Z" fill="#E4E4E4"/>
<path d="M367.843 228.649H310.309C309.908 228.648 309.524 228.485 309.24 228.195C308.957 227.904 308.797 227.511 308.797 227.1V203.199C308.797 202.789 308.957 202.395 309.24 202.105C309.524 201.815 309.908 201.652 310.309 201.651H367.843C368.244 201.652 368.628 201.815 368.912 202.105C369.195 202.395 369.355 202.789 369.355 203.199V227.1C369.355 227.511 369.195 227.904 368.912 228.195C368.628 228.485 368.244 228.648 367.843 228.649Z" fill="#F9CE69"/>
<path d="M362.364 240.114H315.787C315.306 240.114 314.844 239.919 314.504 239.57C314.164 239.222 313.973 238.749 313.973 238.256C313.973 237.764 314.164 237.291 314.504 236.943C314.844 236.594 315.306 236.398 315.787 236.398H362.364C364.705 236.365 364.728 240.148 362.364 240.114Z" fill="#E4E4E4"/>
<path d="M362.364 248.63H315.787C315.307 248.629 314.846 248.433 314.506 248.085C314.166 247.736 313.976 247.264 313.976 246.772C313.976 246.28 314.166 245.808 314.506 245.459C314.846 245.111 315.307 244.915 315.787 244.914H362.364C364.705 244.88 364.728 248.664 362.364 248.63Z" fill="#E4E4E4"/>
<path d="M362.364 257.145H315.787C315.306 257.145 314.844 256.95 314.504 256.601C314.164 256.253 313.973 255.78 313.973 255.287C313.973 254.795 314.164 254.322 314.504 253.974C314.844 253.625 315.306 253.43 315.787 253.43H362.364C364.705 253.396 364.728 257.179 362.364 257.145Z" fill="#E4E4E4"/>
<path d="M112.214 270.378L112.022 189.294L112.744 189.293L112.709 174.379L111.987 174.381L111.928 149.486C111.926 148.556 111.745 147.636 111.396 146.778C111.046 145.92 110.535 145.14 109.891 144.485C109.247 143.829 108.484 143.309 107.644 142.955C106.804 142.602 105.904 142.421 104.996 142.423L53.5334 142.55C52.6252 142.552 51.7264 142.738 50.8882 143.096C50.05 143.453 49.2888 143.977 48.6482 144.636C48.0075 145.295 47.5 146.077 47.1544 146.937C46.8089 147.796 46.6322 148.718 46.6343 149.647L46.6753 167.006L45.5254 167.035L45.7794 177.462L46.6999 177.438L46.7054 179.739L45.7257 179.764L45.9797 190.191L46.73 190.172L46.9196 270.539C46.9201 271.469 47.1 272.39 47.449 273.249C47.7979 274.108 48.3091 274.888 48.9532 275.545C49.5972 276.201 50.3615 276.72 51.2021 277.074C52.0427 277.427 52.9432 277.606 53.8519 277.603L105.315 277.475C107.148 277.469 108.904 276.718 110.197 275.387C111.491 274.056 112.216 272.255 112.214 270.378Z" fill="#3F3D56"/>
<path d="M52.2783 274.358C51.6365 274.122 51.0812 273.689 50.688 273.118C50.2947 272.548 50.0826 271.867 50.0804 271.169L49.7922 149.002C49.7902 148.102 50.1373 147.238 50.7573 146.6C51.3772 145.963 52.2192 145.603 53.098 145.601L64.0477 145.574L63.912 145.916C63.6769 146.51 63.5881 147.155 63.6535 147.793C63.7189 148.431 63.9365 149.042 64.2872 149.574C64.6378 150.105 65.1107 150.54 65.6642 150.84C66.2177 151.14 66.8349 151.297 67.4612 151.295L91.7619 151.235C92.3668 151.181 92.9507 150.982 93.4665 150.654C93.9824 150.326 94.4155 149.878 94.731 149.347C95.042 148.825 95.228 148.235 95.2738 147.626C95.3197 147.016 95.2241 146.404 94.9948 145.839L94.8577 145.498L106.168 145.469C107.047 145.468 107.89 145.824 108.512 146.459C109.135 147.093 109.487 147.955 109.49 148.854L109.765 265.412C109.768 267.799 108.846 270.09 107.202 271.781C105.557 273.473 103.324 274.428 100.993 274.436L53.4022 274.554C53.0193 274.555 52.6391 274.489 52.2783 274.358Z" fill="white"/>
<path d="M71.0256 148.469C71.4417 148.469 71.779 148.124 71.779 147.698C71.779 147.272 71.4417 146.927 71.0256 146.927C70.6095 146.927 70.2722 147.272 70.2722 147.698C70.2722 148.124 70.6095 148.469 71.0256 148.469Z" fill="white"/>
<path d="M100.148 186.015H61.0494C60.7769 186.015 60.5157 185.904 60.3231 185.707C60.1304 185.509 60.022 185.242 60.0217 184.963V168.72C60.022 168.441 60.1304 168.174 60.3231 167.977C60.5157 167.78 60.7769 167.669 61.0494 167.668H100.148C100.42 167.669 100.682 167.78 100.874 167.977C101.067 168.174 101.175 168.441 101.176 168.72V184.963C101.175 185.242 101.067 185.509 100.874 185.707C100.682 185.904 100.42 186.015 100.148 186.015Z" fill="#F9CE69"/>
<path d="M96.4249 193.807H64.7723C64.6101 193.807 64.4495 193.775 64.2996 193.712C64.1497 193.648 64.0135 193.555 63.8987 193.438C63.7839 193.321 63.6929 193.181 63.6307 193.028C63.5686 192.875 63.5366 192.71 63.5366 192.544C63.5366 192.378 63.5686 192.214 63.6307 192.061C63.6929 191.907 63.7839 191.768 63.8987 191.651C64.0135 191.533 64.1497 191.44 64.2996 191.377C64.4495 191.314 64.6101 191.281 64.7723 191.282H96.4249C98.0153 191.259 98.0312 193.83 96.4249 193.807Z" fill="#E4E4E4"/>
<path d="M96.4249 199.594H64.7723C64.4452 199.594 64.1315 199.461 63.9003 199.224C63.669 198.987 63.5391 198.666 63.5391 198.331C63.5391 197.996 63.669 197.675 63.9003 197.438C64.1315 197.202 64.4452 197.069 64.7723 197.069H96.4249C98.0153 197.046 98.0312 199.617 96.4249 199.594Z" fill="#E4E4E4"/>
<path d="M96.4249 205.381H64.7723C64.6101 205.381 64.4495 205.349 64.2996 205.286C64.1497 205.222 64.0135 205.129 63.8987 205.012C63.7839 204.895 63.6929 204.755 63.6307 204.602C63.5686 204.449 63.5366 204.284 63.5366 204.118C63.5366 203.952 63.5686 203.788 63.6307 203.634C63.6929 203.481 63.7839 203.342 63.8987 203.225C64.0135 203.107 64.1497 203.014 64.2996 202.951C64.4495 202.888 64.6101 202.855 64.7723 202.856H96.4249C98.0153 202.833 98.0312 205.404 96.4249 205.381Z" fill="#E4E4E4"/>
<path d="M100.148 234.689H61.0494C60.7769 234.689 60.5157 234.578 60.3231 234.38C60.1304 234.183 60.022 233.916 60.0217 233.637V217.394C60.022 217.115 60.1304 216.848 60.3231 216.65C60.5157 216.453 60.7769 216.342 61.0494 216.342H100.148C100.42 216.342 100.682 216.453 100.874 216.65C101.067 216.848 101.175 217.115 101.176 217.394V233.637C101.175 233.916 101.067 234.183 100.874 234.38C100.682 234.578 100.42 234.689 100.148 234.689Z" fill="#F9CE69"/>
<path d="M96.4249 242.48H64.7723C64.6101 242.481 64.4495 242.448 64.2996 242.385C64.1497 242.322 64.0135 242.229 63.8987 242.112C63.7839 241.994 63.6929 241.855 63.6307 241.702C63.5686 241.548 63.5366 241.384 63.5366 241.218C63.5366 241.052 63.5686 240.887 63.6307 240.734C63.6929 240.581 63.7839 240.441 63.8987 240.324C64.0135 240.207 64.1497 240.114 64.2996 240.051C64.4495 239.987 64.6101 239.955 64.7723 239.955H96.4249C98.0153 239.933 98.0312 242.503 96.4249 242.48Z" fill="#E4E4E4"/>
<path d="M96.4249 248.268H64.7723C64.4452 248.268 64.1315 248.134 63.9003 247.898C63.669 247.661 63.5391 247.34 63.5391 247.005C63.5391 246.67 63.669 246.349 63.9003 246.112C64.1315 245.875 64.4452 245.742 64.7723 245.742H96.4249C98.0153 245.72 98.0312 248.29 96.4249 248.268Z" fill="#E4E4E4"/>
<path d="M96.4249 254.055H64.7723C64.6101 254.055 64.4495 254.022 64.2996 253.959C64.1497 253.896 64.0135 253.803 63.8987 253.686C63.7839 253.568 63.6929 253.429 63.6307 253.276C63.5686 253.122 63.5366 252.958 63.5366 252.792C63.5366 252.626 63.5686 252.461 63.6307 252.308C63.6929 252.155 63.7839 252.015 63.8987 251.898C64.0135 251.781 64.1497 251.688 64.2996 251.625C64.4495 251.561 64.6101 251.529 64.7723 251.529H96.4249C98.0153 251.507 98.0312 254.077 96.4249 254.055Z" fill="#E4E4E4"/>
<path d="M12.7466 273.165L16.9951 273.165L19.0161 256.388H12.7456L12.7466 273.165Z" fill="#A0616A"/>
<path d="M11.6628 271.745L12.8586 271.745L17.5272 269.801L20.0295 271.745H20.0298C21.4439 271.745 22.8 272.32 23.7999 273.344C24.7998 274.367 25.3616 275.756 25.3617 277.204V277.381L11.6631 277.382L11.6628 271.745Z" fill="#2F2E41"/>
<path d="M29.2102 270.424L33.354 271.382L38.9351 255.473L32.8189 254.059L29.2102 270.424Z" fill="#A0616A"/>
<path d="M28.4585 268.795L29.625 269.064L34.5971 268.221L36.6197 270.681L36.62 270.681C37.9994 271 39.1984 271.867 39.9535 273.091C40.7086 274.315 40.9579 275.796 40.6465 277.208L40.6083 277.382L27.2461 274.293L28.4585 268.795Z" fill="#2F2E41"/>
<path d="M7.36578 170.598C5.37394 176.748 5.58452 183.425 7.84455 190.59L8.81068 230.934C8.81068 230.934 7.37123 257.39 12.0161 266.7H18.7524L22.0876 228.518L22.5064 202.889L36.9483 224.511L27.7499 266.076L36.0406 266.835L50.9673 221.727L32.5508 177.965L7.36578 170.598Z" fill="#2F2E41"/>
<path d="M33.752 179.257L9.25732 175.246C8.6149 175.035 8.02461 174.685 7.52698 174.219C7.02934 173.752 6.63615 173.181 6.3744 172.545C6.11264 171.908 5.98852 171.221 6.01055 170.531C6.03258 169.841 6.20025 169.163 6.50204 168.546L7.61285 166.271L7.18136 142.371C7.12935 139.262 7.87793 136.194 9.35179 133.475C10.8256 130.757 12.9728 128.484 15.5772 126.884L17.9659 125.422L19.1731 122.283L30.3043 122.561L30.3367 126.678L34.3231 133.186L34.323 133.213L34.0728 168.636L32.9742 172.292L34.6354 176.544L33.752 179.257Z" fill="#3F3D56"/>
<path d="M25.7582 118.381C31.3439 118.381 35.8721 113.745 35.8721 108.026C35.8721 102.307 31.3439 97.6708 25.7582 97.6708C20.1724 97.6708 15.6443 102.307 15.6443 108.026C15.6443 113.745 20.1724 118.381 25.7582 118.381Z" fill="#A0616A"/>
<path d="M15.2265 110.283C14.9249 108.982 15.0633 107.151 15.2338 105.841C15.4521 104.113 16.0225 102.452 16.9081 100.965C17.7936 99.4774 18.9745 98.1972 20.3742 97.207C20.9108 96.7896 21.5485 96.5301 22.2186 96.4565C22.5535 96.4276 22.8888 96.508 23.1763 96.686C23.4639 96.8641 23.6891 97.1308 23.8196 97.4479C23.9882 97.0169 24.2414 96.6258 24.5635 96.2989C24.8855 95.9719 25.2696 95.716 25.692 95.5469C26.5405 95.2141 27.4531 95.0882 28.3574 95.1793C30.1101 95.3272 31.7911 95.9582 33.2219 97.0053C34.6527 98.0524 35.7798 99.4766 36.4838 101.127C36.754 101.784 37.5085 99.3568 37.8508 99.9776C38.1653 100.623 38.7141 101.117 39.3796 101.353C40.0502 101.544 40.3226 104.374 40.5866 103.714C40.7913 104.201 40.8723 104.734 40.8219 105.262C40.7714 105.79 40.5913 106.297 40.2981 106.735C40.005 107.172 39.6085 107.527 39.1455 107.765C38.6824 108.004 38.168 108.119 37.65 108.099C36.9729 108.009 36.3018 107.878 35.6402 107.705C34.4255 107.548 33.1967 107.852 32.186 108.56C31.1752 109.267 30.4524 110.329 30.154 111.545C29.9694 110.838 29.6745 110.166 29.2806 109.555C29.0807 109.251 28.8129 109.001 28.4993 108.825C28.1858 108.648 27.8357 108.551 27.4781 108.541C27.1362 108.581 26.806 108.693 26.5077 108.868C26.2094 109.044 25.9493 109.28 25.7434 109.562C25.2981 110.097 24.9637 110.722 24.5152 111.254C23.199 112.816 21.4189 116.459 19.5433 116.194C18.0631 115.984 15.6384 112.06 15.2265 110.283Z" fill="#2F2E41"/>
<path d="M63.4616 171.699C63.0311 171.89 62.5649 171.983 62.0958 171.97C61.6266 171.957 61.166 171.839 60.7462 171.624C60.3265 171.409 59.9579 171.102 59.6664 170.726C59.3749 170.349 59.1676 169.912 59.0591 169.444L47.7087 168.27L51.4533 163.565L61.6578 165.401C62.4369 165.266 63.2372 165.429 63.907 165.858C64.5768 166.287 65.0695 166.953 65.2919 167.73C65.5142 168.506 65.4507 169.339 65.1134 170.07C64.7761 170.802 64.1883 171.381 63.4616 171.699Z" fill="#A0616A"/>
<path d="M56.4803 169.832L29.9922 167.333L29.9558 167.291L10.6241 144.612C9.35186 142.616 8.87285 140.198 9.28514 137.853C9.69743 135.508 10.9698 133.412 12.8418 131.996C13.8776 131.214 15.0633 130.666 16.3209 130.388C17.5785 130.109 18.8795 130.106 20.1382 130.38C21.397 130.653 22.5849 131.196 23.6238 131.973C24.6628 132.75 25.5291 133.744 26.1659 134.889L38.0727 156.295L56.772 163.987L56.4803 169.832Z" fill="#3F3D56"/>
<path d="M466.422 278H0.577643C0.424742 278 0.278254 277.937 0.170293 277.826C0.0623313 277.715 0.00170898 277.565 0.00170898 277.409C0.00170898 277.252 0.0623313 277.102 0.170293 276.991C0.278254 276.88 0.424742 276.818 0.577643 276.817H466.422C466.576 276.817 466.723 276.88 466.831 276.99C466.939 277.101 467 277.252 467 277.409C467 277.565 466.939 277.716 466.831 277.827C466.723 277.938 466.576 278 466.422 278Z" fill="#CCCCCC"/>
<path d="M385.409 172.297C385.842 172.339 386.278 172.284 386.688 172.135C387.097 171.987 387.47 171.748 387.779 171.436C388.089 171.123 388.328 170.746 388.479 170.329C388.63 169.912 388.691 169.466 388.656 169.023L398.321 164.666L393.71 161.619L385.239 166.224C384.515 166.333 383.856 166.711 383.386 167.285C382.916 167.859 382.668 168.589 382.689 169.338C382.711 170.086 382.999 170.801 383.5 171.346C384.002 171.892 384.681 172.23 385.409 172.297V172.297Z" fill="#FFB6B6"/>
<path d="M391.092 168.032L389.376 161.914L406.749 152.99L416.998 132.771C417.505 131.771 418.22 130.898 419.093 130.214C419.967 129.529 420.976 129.05 422.051 128.81C423.125 128.57 424.238 128.575 425.311 128.824C426.383 129.074 427.388 129.563 428.256 130.255C429.821 131.508 430.837 133.344 431.081 135.363C431.324 137.381 430.776 139.416 429.556 141.021L414.145 161.254L391.092 168.032Z" fill="#E4E4E4"/>
</g>
<defs>
<clipPath id="clip0_319_3">
<rect width="467" height="270" fill="white" transform="translate(0 8)"/>
</clipPath>
</defs>
</svg>
