<svg width="491" height="352" viewBox="0 0 491 352" fill="none" xmlns="http://www.w3.org/2000/svg">
<g clip-path="url(#clip0_77_478)">
<path d="M335.652 67.29C332.889 64.1539 329.559 61.6388 325.86 59.8941C322.162 58.1494 318.17 57.2109 314.122 57.1342C310.074 57.0575 306.053 57.8443 302.298 59.4477C298.543 61.0512 295.13 63.4386 292.263 66.468L139.471 228.428C135.434 232.697 129.967 235.099 124.265 235.108C118.563 235.117 113.089 232.733 109.04 228.476L86.4109 204.538C83.6133 201.571 80.2916 199.218 76.6357 197.612C72.9798 196.006 69.0612 195.18 65.1039 195.18C61.1466 195.18 57.2281 196.006 53.5722 197.612C49.9162 199.218 46.5946 201.571 43.7969 204.538L0 251.012H491V244.387L335.652 67.29Z" fill="#F0F0F0"/>
<path d="M156.712 337.312C130.892 328.697 105.504 328.696 81.252 337.31L80.9681 336.412C105.403 327.733 130.977 327.732 156.98 336.409L156.712 337.312Z" fill="#E4E4E4"/>
<path d="M426.09 316.003C400.271 307.388 374.882 307.387 350.63 316.001L350.346 315.103C374.781 306.424 400.355 306.423 426.358 315.1L426.09 316.003Z" fill="#E4E4E4"/>
<path d="M442.409 122.683C461.644 69.7877 451.006 16.1901 418.649 2.96953C386.292 -10.2511 344.469 21.9118 325.234 74.8071C305.999 127.703 316.636 181.3 348.993 194.521C381.35 207.741 423.173 175.578 442.409 122.683Z" fill="#F9CE69"/>
<path d="M346.36 270.534C346.159 270.534 345.964 270.456 345.812 270.316C345.66 270.176 345.561 269.983 345.532 269.772C345.497 269.507 342.013 242.873 345.142 207.476C348.031 174.786 357.311 127.701 385.109 89.0312C385.175 88.9382 385.258 88.8601 385.353 88.8013C385.448 88.7424 385.554 88.704 385.663 88.6883C385.772 88.6725 385.883 88.6798 385.989 88.7095C386.096 88.7393 386.195 88.791 386.283 88.8617C386.371 88.9325 386.444 89.0208 386.499 89.1217C386.555 89.2226 386.591 89.3341 386.605 89.4498C386.62 89.5654 386.613 89.683 386.585 89.7958C386.556 89.9086 386.507 90.0143 386.44 90.107C358.883 128.443 349.678 175.183 346.809 207.642C343.698 242.833 347.155 269.259 347.19 269.521C347.207 269.647 347.198 269.776 347.164 269.898C347.13 270.02 347.071 270.132 346.993 270.228C346.914 270.324 346.817 270.401 346.708 270.454C346.599 270.507 346.48 270.534 346.36 270.534V270.534Z" fill="#3F3D56"/>
<path d="M360.256 140.164C360.079 140.164 359.907 140.105 359.764 139.995C359.621 139.885 359.514 139.729 359.459 139.551C359.405 139.373 359.405 139.181 359.459 139.003C359.514 138.824 359.62 138.669 359.763 138.559C359.864 138.481 370.033 130.714 385.236 124.814C399.29 119.36 420.661 114.415 442.662 121.838C442.874 121.909 443.05 122.066 443.152 122.275C443.254 122.484 443.274 122.728 443.206 122.952C443.139 123.176 442.99 123.363 442.793 123.471C442.596 123.579 442.366 123.6 442.155 123.529C420.604 116.259 399.621 121.121 385.812 126.48C370.826 132.296 360.847 139.918 360.748 139.994C360.605 140.105 360.433 140.164 360.256 140.164Z" fill="#3F3D56"/>
<path d="M142.183 218.665C174.54 205.445 185.177 151.847 165.942 98.9518C146.707 46.0565 104.883 13.8937 72.5264 27.1143C40.1695 40.3348 29.5321 93.9324 48.7672 146.828C68.0023 199.723 109.826 231.886 142.183 218.665Z" fill="#F9CE69"/>
<path d="M144.816 294.679C145.017 294.678 145.212 294.601 145.364 294.461C145.516 294.321 145.615 294.128 145.644 293.916C145.679 293.651 149.163 267.018 146.034 231.621C143.144 198.931 133.865 151.846 106.067 113.176C106.001 113.083 105.917 113.005 105.822 112.946C105.727 112.887 105.622 112.849 105.513 112.833C105.404 112.817 105.293 112.824 105.187 112.854C105.08 112.884 104.98 112.936 104.893 113.006C104.805 113.077 104.732 113.166 104.676 113.266C104.621 113.367 104.585 113.479 104.57 113.594C104.556 113.71 104.563 113.828 104.591 113.94C104.619 114.053 104.668 114.159 104.735 114.252C132.293 152.588 141.498 199.327 144.367 231.787C147.478 266.978 144.021 293.403 143.986 293.666C143.969 293.792 143.978 293.92 144.012 294.042C144.046 294.164 144.104 294.277 144.183 294.373C144.262 294.469 144.359 294.546 144.468 294.599C144.577 294.651 144.696 294.679 144.816 294.679Z" fill="#3F3D56"/>
<path d="M130.92 164.309C131.096 164.309 131.269 164.25 131.412 164.139C131.555 164.029 131.662 163.874 131.716 163.696C131.771 163.518 131.771 163.326 131.717 163.147C131.662 162.969 131.556 162.814 131.412 162.703C131.312 162.626 121.142 154.859 105.939 148.958C91.8855 143.504 70.5144 138.56 48.5132 145.982C48.4082 146.017 48.3108 146.074 48.2266 146.149C48.1423 146.224 48.0729 146.316 48.0222 146.42C47.9715 146.524 47.9406 146.637 47.9313 146.753C47.9219 146.869 47.9343 146.986 47.9676 147.097C48.001 147.209 48.0548 147.312 48.1258 147.401C48.1968 147.49 48.2838 147.564 48.3816 147.617C48.4794 147.67 48.5863 147.703 48.696 147.713C48.8057 147.722 48.9161 147.709 49.0209 147.673C70.5713 140.404 91.5551 145.266 105.364 150.625C120.35 156.441 130.329 164.063 130.428 164.139C130.571 164.249 130.743 164.309 130.92 164.309Z" fill="#3F3D56"/>
<path d="M101.287 332.39C101.244 332.253 97.081 318.601 104.448 306.419L105.2 306.93C98.069 318.722 102.093 331.958 102.134 332.09L101.287 332.39Z" fill="#E4E4E4"/>
<path d="M109.42 308.521C109.211 309.306 108.859 310.039 108.382 310.68C107.906 311.32 107.316 311.855 106.645 312.254C105.974 312.652 105.235 312.907 104.471 313.003C103.707 313.099 102.933 313.034 102.192 312.813C100.697 312.366 99.4302 311.308 98.6708 309.872C98.2947 309.16 98.0546 308.377 97.964 307.568C97.8734 306.758 97.9342 305.937 98.1428 305.152C99.0203 301.851 104.334 293.663 107.448 294.593C110.562 295.523 110.297 305.22 109.42 308.521Z" fill="#E4E4E4"/>
<path d="M108.649 323.865C105.823 327.101 100.769 327.013 100.769 327.013C100.769 327.013 100.295 321.679 103.121 318.443C105.946 315.206 111 315.294 111 315.294C111 315.294 111.474 320.629 108.649 323.865Z" fill="#E4E4E4"/>
<path d="M395.681 309.187C395.638 309.05 391.476 295.398 398.843 283.216L399.595 283.727C392.464 295.519 396.487 308.755 396.529 308.887L395.681 309.187Z" fill="#E4E4E4"/>
<path d="M404.111 284.968C403.953 285.766 403.648 286.524 403.213 287.197C402.778 287.87 402.223 288.446 401.578 288.892C400.934 289.338 400.212 289.644 399.456 289.795C398.699 289.945 397.922 289.935 397.169 289.767C396.416 289.599 395.702 289.274 395.067 288.813C394.432 288.352 393.889 287.763 393.469 287.079C393.049 286.396 392.76 285.631 392.619 284.829C392.478 284.027 392.488 283.203 392.647 282.405C393.315 279.049 398.975 270.698 402.14 271.406C405.306 272.114 404.779 281.612 404.111 284.968Z" fill="#E4E4E4"/>
<path d="M403.043 300.662C400.218 303.898 395.164 303.81 395.164 303.81C395.164 303.81 394.69 298.476 397.515 295.24C400.341 292.003 405.395 292.091 405.395 292.091C405.395 292.091 405.869 297.426 403.043 300.662Z" fill="#E4E4E4"/>
<path d="M145.678 293.885C145.678 293.885 201.519 167.926 263.615 187.341C325.71 206.756 282.824 307.617 282.824 307.617L145.678 293.885Z" fill="#CACACA"/>
<path d="M144.691 297.008L152.285 286.116L229.123 259.599L358.321 273.05L358.643 278.303L317.575 323.525L144.691 297.008Z" fill="#3F3D56"/>
<path d="M226.531 330.619H230.595L232.528 314.005H226.531L226.531 330.619Z" fill="#A0616A"/>
<path d="M225.495 329.213L233.497 329.212H233.498C234.85 329.212 236.147 329.782 237.104 330.796C238.06 331.809 238.598 333.184 238.598 334.618V334.794L225.495 334.794L225.495 329.213Z" fill="#2F2E41"/>
<path d="M210.801 321.795L207.509 324.32L196.755 312.061L201.613 308.335L210.801 321.795Z" fill="#A0616A"/>
<path d="M213.95 324.534L203.334 332.675L203.237 332.533C202.444 331.371 202.119 329.924 202.334 328.508C202.548 327.092 203.284 325.825 204.379 324.984L204.38 324.984L210.863 320.012L213.95 324.534Z" fill="#2F2E41"/>
<path d="M215.249 257.212C215.249 257.212 210.985 253.827 206.375 257.212L203.185 285.42H212.765L214.184 276.393L217.378 262.853L215.249 257.212Z" fill="#2F2E41"/>
<path d="M224.846 300.777L207.652 294.826L199.456 301.721L208.163 315.832L203.609 322.163L203.479 322.006C202.914 321.324 189.64 305.245 189.679 300.685C189.777 297.591 190.27 294.525 191.145 291.572L195.456 285.084L201.576 283.177L221.836 286.191L221.869 286.196L230.054 291.477C230.864 292.029 231.547 292.766 232.052 293.635C232.557 294.503 232.872 295.481 232.973 296.496C233.325 299.85 234.031 326.705 234.039 326.976L234.043 327.152H225.202L224.846 300.777Z" fill="#2F2E41"/>
<path d="M213.941 294.039C210.953 292.632 207.136 287.135 206.507 286.208C205.278 286.917 196.31 291.997 193.782 290.691C193.415 290.906 191.755 291.956 191.456 293.54L191.381 293.937L191.165 293.603C191.125 293.542 187.23 287.403 192.269 283.588C196.863 280.11 198.099 276.596 198.228 276.194L195.735 262.228L195.801 262.164C196.005 261.962 200.858 257.23 205.286 256.667L208.017 256.157L208.136 267.179V281.289C210.343 280.995 213.835 256.34 213.835 256.34L215.659 257.049C216.131 257.144 221.428 258.266 222.834 260.502L222.88 260.574L218.061 274.384L216.652 276.633V279.512L224.885 287.101L224.768 287.231C224.488 287.542 218.417 294.236 214.88 294.235C214.558 294.24 214.238 294.174 213.941 294.039Z" fill="#2F2E41"/>
<path d="M210.803 253.34C215.187 253.34 218.741 249.573 218.741 244.926C218.741 240.279 215.187 236.512 210.803 236.512C206.419 236.512 202.865 240.279 202.865 244.926C202.865 249.573 206.419 253.34 210.803 253.34Z" fill="#A0616A"/>
<path d="M208.804 296.545C208.861 296.067 209.016 295.608 209.258 295.201C209.501 294.794 209.824 294.447 210.206 294.187C210.588 293.926 211.02 293.757 211.47 293.693C211.92 293.628 212.379 293.669 212.812 293.812L217.362 288.031L221.351 290.105L214.818 298.173C214.542 298.93 214.015 299.553 213.335 299.925C212.655 300.296 211.87 300.391 211.129 300.19C210.388 299.99 209.742 299.508 209.313 298.836C208.885 298.164 208.704 297.349 208.804 296.545V296.545Z" fill="#A0616A"/>
<path d="M212.02 291.643L219.158 281.429L217.39 271.309L220.258 259.908L220.33 259.875C220.388 259.849 221.761 259.236 222.806 259.695C223.019 259.789 223.213 259.928 223.373 260.105C223.533 260.281 223.657 260.491 223.737 260.721C224.447 262.603 226.159 281.768 226.232 282.616C226.217 282.771 225.866 286.426 225.151 287.941C224.44 289.45 217.951 297.059 217.675 297.383L217.561 297.516L212.02 291.643Z" fill="#2F2E41"/>
<path d="M217.622 242.76C214.979 246.283 210.451 245.637 206.827 244.348C207.038 247.168 206.316 249.978 204.784 252.294C205.252 250.296 203.281 249.899 202.131 249.156C201.688 248.561 202.056 247.675 201.874 246.942C199.809 244.375 198.44 242.439 201.091 239.427C202.643 237.225 204.506 234.475 207.463 235.054C209.803 232.16 213.637 232.913 216.253 234.937C217.429 235.859 218.499 236.925 219.441 238.112C219.14 239.674 218.579 241.167 217.785 242.521" fill="#2F2E41"/>
<path d="M246.639 302.409L315.565 313.345L358.004 273.094C358.004 273.094 337.901 185.491 265.531 179.336C193.161 173.18 140.894 297.245 140.894 297.245L148.473 297.588C148.473 297.588 187.8 201.118 241.408 198.277C295.015 195.436 246.639 302.409 246.639 302.409Z" fill="#E4E4E4"/>
<path d="M260.264 212.675H214.698C212.21 212.675 209.823 211.627 208.064 209.762C206.305 207.897 205.316 205.368 205.316 202.731C205.316 200.093 206.305 197.564 208.064 195.699C209.823 193.834 212.21 192.786 214.698 192.786H260.264C262.752 192.786 265.138 193.834 266.898 195.699C268.657 197.564 269.645 200.093 269.645 202.731C269.645 205.368 268.657 207.897 266.898 209.762C265.138 211.627 262.752 212.675 260.264 212.675Z" fill="#CACACA"/>
<path d="M303.753 272.581C303.368 272.336 303.039 272.005 302.788 271.61C302.538 271.216 302.371 270.768 302.302 270.298C302.232 269.828 302.26 269.348 302.385 268.891C302.509 268.434 302.727 268.011 303.022 267.653L299.033 225.224L305.693 225.693L307.539 267.472C308.074 268.038 308.394 268.791 308.44 269.591C308.486 270.39 308.253 271.179 307.787 271.809C307.32 272.439 306.652 272.866 305.908 273.008C305.165 273.15 304.398 272.998 303.753 272.581Z" fill="#FFB8B8"/>
<path d="M308.392 223.653L306.646 237.721L306.888 246.343L299.563 247.054L298.094 239.883L297.285 220.898C297.224 219.466 297.678 218.063 298.554 216.971C299.43 215.879 300.664 215.18 302.008 215.015C303.401 214.843 304.803 215.259 305.909 216.173C307.016 217.087 307.74 218.425 307.923 219.899L308.392 223.653Z" fill="#2F2E41"/>
<path d="M280.338 347.434L275.894 347.434L273.781 329.265L280.339 329.266L280.338 347.434Z" fill="#FFB7B7"/>
<path d="M281.471 352L267.143 351.999V351.807C267.143 350.24 267.731 348.736 268.777 347.627C269.822 346.519 271.241 345.896 272.72 345.896H272.72L281.471 345.896L281.471 352Z" fill="#2F2E41"/>
<path d="M317.03 347.434L312.587 347.434L310.473 329.265L317.031 329.266L317.03 347.434Z" fill="#FFB7B7"/>
<path d="M318.164 352L303.835 351.999V351.807C303.835 350.24 304.423 348.736 305.469 347.627C306.515 346.519 307.933 345.896 309.412 345.896H309.413L318.164 345.896L318.164 352Z" fill="#2F2E41"/>
<path d="M299.751 208.327C305.071 208.327 309.385 203.755 309.385 198.115C309.385 192.475 305.071 187.903 299.751 187.903C294.43 187.903 290.116 192.475 290.116 198.115C290.116 203.755 294.43 208.327 299.751 208.327Z" fill="#FFB8B8"/>
<path d="M298.506 212.473L305.192 213.283C306.817 215.727 307.872 218.546 308.267 221.507C308.663 224.468 308.388 227.487 307.467 230.313L302.422 245.783C302.422 245.783 309.425 260.665 309.425 274.482C309.425 288.299 322.762 337.618 322.762 337.618L303.989 339.694L295.797 287.155L284.509 339.482L271.622 337.259L278.72 268.651L283.41 246.07L283.61 235.057C283.61 235.057 281.616 226.794 286.607 221.503L292.7 212.503L298.506 212.473Z" fill="#2F2E41"/>
<path d="M288.52 194.468H302.677V187.927C299.57 186.618 296.529 185.505 294.691 187.927C293.054 187.927 291.485 188.616 290.327 189.843C289.17 191.069 288.52 192.733 288.52 194.468Z" fill="#2F2E41"/>
<path d="M303.461 186.772C311.924 186.772 314.293 198.017 314.293 204.361C314.293 207.899 312.784 209.165 310.412 209.593L309.574 204.857L307.612 209.797C306.946 209.8 306.246 209.786 305.52 209.772L304.855 208.32L303.372 209.746C297.43 209.755 292.629 210.673 292.629 204.361C292.629 198.017 294.706 186.772 303.461 186.772Z" fill="#2F2E41"/>
<path opacity="0.2" d="M290.945 248.884L290.587 232.411L289.638 225.098L287.291 232.342L290.945 248.884Z" fill="black"/>
<path d="M318.248 260.303L302.927 258.915L302.282 212.789L309.752 213.297C310.225 213.331 310.682 213.493 311.08 213.766C311.478 214.039 311.804 214.416 312.026 214.859L321.828 234.571L321.255 257.454C321.236 258.218 320.936 258.944 320.42 259.478C319.904 260.013 319.212 260.312 318.491 260.314C318.411 260.314 318.33 260.311 318.248 260.303Z" fill="#F9CE69"/>
<path d="M283.816 229.503C283.816 219.291 289.681 210.982 296.891 210.982C304.1 210.982 309.965 219.291 309.965 229.503C309.965 239.716 304.1 248.025 296.891 248.025C289.681 248.025 283.816 239.716 283.816 229.503ZM285.527 229.503C285.527 238.716 290.625 246.212 296.891 246.212C303.157 246.212 308.254 238.716 308.254 229.503C308.254 220.29 303.157 212.795 296.891 212.795C290.625 212.795 285.527 220.29 285.527 229.503Z" fill="#F9CE69"/>
<path d="M317.785 257.88L318.793 234.593L308.472 213.207L308.037 213.443L318.298 234.706L317.297 257.857L317.785 257.88Z" fill="#3F3D56"/>
<path d="M292.669 274.296C292.262 274.004 291.92 273.62 291.668 273.173C291.416 272.725 291.26 272.225 291.21 271.706C291.16 271.188 291.218 270.664 291.379 270.172C291.541 269.68 291.803 269.231 292.146 268.858L290.161 222.187L297.422 223.119L297.098 268.945C297.651 269.597 297.96 270.442 297.965 271.319C297.97 272.197 297.671 273.046 297.126 273.705C296.58 274.365 295.825 274.789 295.003 274.898C294.182 275.007 293.351 274.793 292.669 274.296Z" fill="#FFB8B8"/>
<path d="M300.489 221.057L297.789 236.338L297.571 245.787L289.516 246.103L288.312 238.165L288.492 217.343C288.506 215.773 289.08 214.266 290.1 213.127C291.12 211.988 292.509 211.301 293.988 211.205C295.523 211.104 297.032 211.648 298.192 212.717C299.352 213.787 300.068 215.297 300.187 216.921L300.489 221.057Z" fill="#2F2E41"/>
<path d="M183.562 290.62C183.1 290.619 182.658 290.427 182.328 290.086C181.998 289.744 181.807 289.28 181.795 288.792L181.428 274.162L187.695 261.56C187.837 261.276 188.045 261.035 188.3 260.86C188.554 260.686 188.847 260.583 189.149 260.561L193.925 260.236L193.512 289.726L183.717 290.613C183.665 290.618 183.613 290.62 183.562 290.62Z" fill="#F9CE69"/>
<path d="M197.372 282.763C192.762 282.763 189.013 277.451 189.013 270.922C189.013 264.393 192.762 259.081 197.372 259.081C201.981 259.081 205.73 264.393 205.73 270.922C205.73 277.451 201.981 282.763 197.372 282.763ZM197.372 260.24C193.366 260.24 190.106 265.032 190.106 270.922C190.106 276.812 193.366 281.604 197.372 281.604C201.378 281.604 204.637 276.812 204.637 270.922C204.637 265.032 201.378 260.24 197.372 260.24Z" fill="#F9CE69"/>
<path d="M184.013 289.064L183.369 274.175L189.967 260.503L190.246 260.654L183.685 274.248L184.325 289.049L184.013 289.064Z" fill="#3F3D56"/>
<path d="M217.169 300.475C217.118 300.496 217.064 300.511 217.01 300.519L210.322 301.508C210.16 301.533 209.995 301.499 209.855 301.411C209.714 301.323 209.605 301.186 209.547 301.025L203.791 285.147C203.754 285.044 203.738 284.934 203.744 284.824C203.751 284.714 203.779 284.607 203.828 284.51C203.878 284.413 203.946 284.328 204.029 284.262C204.111 284.195 204.207 284.148 204.308 284.124H204.308L210.597 282.637C210.646 282.625 210.693 282.607 210.737 282.582L216.854 279.192C216.901 279.166 216.951 279.146 217.003 279.131L223.734 277.229C223.907 277.18 224.09 277.2 224.249 277.286C224.408 277.372 224.532 277.517 224.595 277.694L229.615 291.538C229.659 291.659 229.673 291.79 229.657 291.918C229.64 292.046 229.593 292.167 229.52 292.271L227.784 294.742C227.702 294.858 227.591 294.948 227.463 294.999L223.67 296.545C223.642 296.556 223.616 296.569 223.591 296.585L217.269 300.425C217.237 300.444 217.204 300.461 217.169 300.475Z" fill="white"/>
<path d="M220.28 279.345L219.426 279.587L217.16 280.227L217.156 280.228L214.055 281.947L212.904 282.585L212.903 282.586L211.174 283.544L211.127 283.555L209.331 283.979L208.463 284.185L204.923 285.022L210.481 300.35L214.128 299.811L215.023 299.678L216.929 299.396L216.951 299.393L223.077 295.671L226.804 294.153L228.506 291.73L223.669 278.388L220.28 279.345Z" fill="#E4E4E4"/>
<path d="M224.466 280.586L206.037 288.093L206.352 288.964L224.781 281.457L224.466 280.586Z" fill="white"/>
<path d="M225.518 283.488L207.089 290.995L207.404 291.865L225.833 284.358L225.518 283.488Z" fill="white"/>
<path d="M227.643 289.349L209.214 296.856L209.529 297.727L227.958 290.219L227.643 289.349Z" fill="white"/>
<path d="M220.28 279.345L225.798 294.563L224.977 294.897L219.426 279.587L220.28 279.345Z" fill="white"/>
<path d="M214.055 281.947L212.922 285.289L212.529 286.447L211.613 289.152L211.416 289.73L211.22 290.311L210.961 291.074L209.104 296.553L208.621 295.221L210.135 290.753L210.478 289.741L210.528 289.594L210.933 288.398L211.444 286.89L211.837 285.731L212.903 282.586L212.904 282.585L214.055 281.947Z" fill="white"/>
<path d="M209.331 283.979L215.023 299.678L214.128 299.81L208.463 284.185L209.331 283.979Z" fill="white"/>
<path d="M211.551 299.005C211.494 298.527 211.339 298.068 211.097 297.66C210.855 297.253 210.531 296.907 210.149 296.646C209.767 296.385 209.336 296.217 208.886 296.152C208.435 296.087 207.977 296.128 207.543 296.271L202.994 290.49L199.005 292.564L205.538 300.632C205.813 301.389 206.341 302.012 207.021 302.384C207.701 302.756 208.486 302.85 209.227 302.65C209.968 302.449 210.614 301.967 211.043 301.295C211.471 300.623 211.652 299.808 211.551 299.005V299.005Z" fill="#A0616A"/>
<path d="M202.733 297.969C202.326 297.645 192.755 290.02 191.686 287.753C190.615 285.483 190.88 278.76 190.894 278.454C190.911 278.348 192.577 267.841 193.987 264.106C195.449 260.231 199.127 261.738 199.164 261.754L199.276 261.801L197.674 281.608L206.41 293.893L202.851 298.063L202.733 297.969Z" fill="#2F2E41"/>
</g>
<defs>
<clipPath id="clip0_77_478">
<rect width="491" height="352" fill="white"/>
</clipPath>
</defs>
</svg>
